<svg width="1440" height="14101" viewBox="0 0 1440 14101" fill="none" xmlns="http://www.w3.org/2000/svg">
<g clip-path="url(#clip0_54642_217)">
<rect width="1440" height="14101" fill="#0F0F0F"/>
<g filter="url(#filter0_f_54642_217)">
<path d="M1915.95 616.664C1836.21 832.666 1250.31 815.352 607.289 577.992C-35.7303 340.632 -492.363 -26.8907 -412.629 -242.893C-332.895 -458.895 253.011 -441.582 896.03 -204.221C1539.05 33.1387 1995.68 400.662 1915.95 616.664ZM-127.146 -137.511C-187.329 25.5271 157.338 302.933 642.688 482.093C1128.04 661.252 1570.28 674.321 1630.46 511.282C1690.65 348.244 1345.98 70.8373 860.631 -108.322C375.28 -287.482 -66.9626 -300.55 -127.146 -137.511Z" fill="#A436F1" fill-opacity="0.5"/>
</g>
<g filter="url(#filter1_f_54642_217)">
<path d="M-473.513 2249.1C-377.1 2510.29 242.719 2522.08 910.891 2275.44C1579.06 2028.79 2042.56 1617.11 1946.15 1355.92C1849.74 1094.74 1229.92 1082.95 561.746 1329.59C-106.425 1576.24 -569.927 1987.92 -473.513 2249.1ZM1649.5 1465.43C1722.27 1662.57 1372.42 1973.31 868.086 2159.48C363.75 2345.64 -104.089 2336.75 -176.863 2139.6C-249.636 1942.46 100.215 1631.72 604.551 1445.55C1108.89 1259.38 1576.73 1268.28 1649.5 1465.43Z" fill="#A436F1" fill-opacity="0.5"/>
</g>
<g filter="url(#filter2_f_54642_217)">
<path d="M-489.427 13868.1C-393.014 14129.3 226.805 14141.1 894.977 13894.4C1563.15 13647.8 2026.65 13236.1 1930.24 12974.9C1833.82 12713.7 1214 12701.9 545.832 12948.6C-122.339 13195.2 -585.841 13606.9 -489.427 13868.1ZM1633.59 13084.4C1706.36 13281.6 1356.51 13592.3 852.172 13778.5C347.836 13964.6 -120.004 13955.7 -192.777 13758.6C-265.55 13561.5 84.3013 13250.7 588.637 13064.6C1092.97 12878.4 1560.81 12887.3 1633.59 13084.4Z" fill="#A436F1" fill-opacity="0.5"/>
</g>
<g filter="url(#filter3_f_54642_217)">
<path d="M-6095.19 7608.41C-5769.45 9455.79 -2639.44 10448 895.871 9824.68C4431.18 9201.31 7033.05 7198.36 6707.31 5350.98C6381.57 3503.6 3251.56 2511.34 -283.75 3134.71C-3819.06 3758.08 -6420.93 5761.03 -6095.19 7608.41ZM6140.74 5450.88C6437.65 7134.75 4066.07 8960.42 843.667 9528.61C-2378.74 10096.8 -5231.7 9192.38 -5528.62 7508.51C-5825.53 5824.64 -3453.95 3998.97 -231.546 3430.78C2990.86 2862.58 5843.83 3767.01 6140.74 5450.88Z" fill="#A436F1" fill-opacity="0.5"/>
</g>
<g filter="url(#filter4_f_54642_217)">
<path d="M-5323.14 6659.33C-5264.79 8330.26 -3003.29 9607.5 -271.941 9512.12C2459.41 9416.74 4626.31 7984.86 4567.96 6313.92C4509.61 4642.99 2248.11 3365.75 -483.246 3461.13C-3214.6 3556.51 -5381.49 4988.39 -5323.14 6659.33ZM3755.12 6342.31C3803.88 7738.61 1993.13 8935.15 -289.305 9014.86C-2571.74 9094.56 -4461.55 8027.25 -4510.31 6630.94C-4559.07 5234.64 -2748.32 4038.1 -465.881 3958.39C1816.55 3878.69 3706.36 4946 3755.12 6342.31Z" fill="white"/>
</g>
<g filter="url(#filter5_f_54642_217)">
<ellipse cx="1018.89" cy="467.765" rx="1018.89" ry="467.765" transform="matrix(0.938126 -0.346294 -0.346294 -0.938126 5.70898 4593.32)" fill="white"/>
</g>
<g filter="url(#filter6_f_54642_217)">
<ellipse cx="925.373" cy="467.765" rx="925.373" ry="467.765" transform="matrix(0.938126 -0.346294 -0.346294 -0.938126 -4.28906 5041.4)" fill="white"/>
</g>
<g filter="url(#filter7_f_54642_217)">
<ellipse cx="938.78" cy="467.765" rx="938.78" ry="467.765" transform="matrix(0.938126 -0.346294 -0.346294 -0.938126 -5.99609 5479.03)" fill="white"/>
</g>
<g filter="url(#filter8_f_54642_217)">
<ellipse cx="906.021" cy="467.765" rx="906.021" ry="467.765" transform="matrix(0.938126 -0.346294 -0.346294 -0.938126 27.6348 5869.62)" fill="white"/>
</g>
<g filter="url(#filter9_f_54642_217)">
<ellipse cx="929.699" cy="467.765" rx="929.699" ry="467.765" transform="matrix(0.938126 -0.346294 -0.346294 -0.938126 -22.3516 6114.07)" fill="white"/>
</g>
<g filter="url(#filter10_f_54642_217)">
<ellipse cx="929.699" cy="467.765" rx="929.699" ry="467.765" transform="matrix(0.994522 -0.104528 -0.104528 -0.994522 -187.873 6087.76)" fill="white"/>
</g>
<g filter="url(#filter11_f_54642_217)">
<ellipse cx="929.699" cy="467.765" rx="929.699" ry="467.765" transform="matrix(0.994522 -0.104528 -0.104528 -0.994522 -187.873 6498.76)" fill="white"/>
</g>
<g filter="url(#filter12_f_54642_217)">
<ellipse cx="929.699" cy="467.765" rx="929.699" ry="467.765" transform="matrix(0.994522 -0.104528 -0.104528 -0.994522 -188.211 6909.76)" fill="white"/>
</g>
<g filter="url(#filter13_f_54642_217)">
<ellipse cx="929.699" cy="467.765" rx="929.699" ry="467.765" transform="matrix(0.994522 -0.104528 -0.104528 -0.994522 -188.549 7320.76)" fill="white"/>
</g>
<g filter="url(#filter14_f_54642_217)">
<ellipse cx="929.699" cy="467.765" rx="929.699" ry="467.765" transform="matrix(0.994522 -0.104528 -0.104528 -0.994522 -188.887 7731.76)" fill="white"/>
</g>
<g filter="url(#filter15_f_54642_217)">
<ellipse cx="929.699" cy="467.765" rx="929.699" ry="467.765" transform="matrix(0.994522 -0.104528 -0.104528 -0.994522 -156.211 8034.76)" fill="white"/>
</g>
<g filter="url(#filter16_f_54642_217)">
<ellipse cx="929.699" cy="467.765" rx="929.699" ry="467.765" transform="matrix(0.994522 -0.104528 -0.104528 -0.994522 -123.535 8337.76)" fill="white"/>
</g>
<g filter="url(#filter17_f_54642_217)">
<ellipse cx="929.699" cy="467.765" rx="929.699" ry="467.765" transform="matrix(0.994522 -0.104528 -0.104528 -0.994522 -90.8594 8640.76)" fill="white"/>
</g>
<g filter="url(#filter18_f_54642_217)">
<ellipse cx="929.699" cy="467.765" rx="929.699" ry="467.765" transform="matrix(0.994522 -0.104528 -0.104528 -0.994522 -58.1836 8943.76)" fill="white"/>
</g>
<g filter="url(#filter19_f_54642_217)">
<ellipse cx="929.699" cy="467.765" rx="929.699" ry="467.765" transform="matrix(0.994522 -0.104528 -0.104528 -0.994522 -25.5078 9246.76)" fill="white"/>
</g>
<g filter="url(#filter20_f_54642_217)">
<ellipse cx="929.699" cy="467.765" rx="929.699" ry="467.765" transform="matrix(0.994522 -0.104528 -0.104528 -0.994522 7.16797 9549.76)" fill="white"/>
</g>
<g filter="url(#filter21_f_54642_217)">
<ellipse cx="1308.56" cy="467.765" rx="1308.56" ry="467.765" transform="matrix(0.939693 -0.34202 -0.34202 -0.939693 -252.03 9910.22)" fill="white"/>
</g>
<g filter="url(#filter22_f_54642_217)">
<path d="M2076.8 11352.5C2027.21 11626.4 1418.86 11745.7 718.005 11618.8C17.1528 11492 -510.799 11167 -461.209 10893.1C-411.619 10619.1 196.734 10499.8 897.586 10626.7C1598.44 10753.6 2126.39 11078.5 2076.8 11352.5ZM-150.049 10949.4C-187.48 11156.2 211.018 11401.4 740.021 11497.2C1269.02 11592.9 1728.21 11502.9 1765.64 11296.1C1803.07 11089.3 1404.57 10844.1 875.569 10748.3C346.566 10652.6 -112.619 10742.6 -150.049 10949.4Z" fill="#A436F1" fill-opacity="0.5"/>
</g>
<g filter="url(#filter23_f_54642_217)">
<path d="M2076.8 7279.46C2027.21 7553.42 1418.86 7672.67 718.005 7545.81C17.1528 7418.95 -510.799 7094.02 -461.209 6820.05C-411.619 6546.09 196.734 6426.84 897.586 6553.7C1598.44 6680.56 2126.39 7005.5 2076.8 7279.46ZM-150.049 6876.38C-187.48 7083.17 211.018 7328.42 740.021 7424.18C1269.02 7519.93 1728.21 7429.92 1765.64 7223.14C1803.07 7016.35 1404.57 6771.09 875.569 6675.33C346.566 6579.58 -112.619 6669.59 -150.049 6876.38Z" fill="#A436F1" fill-opacity="0.5"/>
</g>
<g filter="url(#filter24_f_54642_217)">
<path d="M2032.8 5491.46C1983.21 5765.42 1374.86 5884.67 674.005 5757.81C-26.8472 5630.95 -554.799 5306.02 -505.209 5032.05C-455.619 4758.09 152.734 4638.84 853.586 4765.7C1554.44 4892.56 2082.39 5217.5 2032.8 5491.46ZM-194.049 5088.38C-231.48 5295.17 167.018 5540.42 696.021 5636.18C1225.02 5731.93 1684.21 5641.92 1721.64 5435.14C1759.07 5228.35 1360.57 4983.09 831.569 4887.33C302.566 4791.58 -156.619 4881.59 -194.049 5088.38Z" fill="#A436F1" fill-opacity="0.5"/>
</g>
<path d="M552.921 360.826H863.869M62.4712 -167.329L62.4711 469.303M103.931 -167.329L103.931 469.303M145.391 -167.329L145.391 469.303M186.85 -167.329L186.85 469.303M228.31 -167.329L228.31 469.303M269.77 -167.329L269.77 469.303M311.23 -167.329L311.23 469.303M352.689 -167.329L352.689 469.303M394.149 -167.329L394.149 469.303M62 443.962H1347.25M435.609 -167.329L435.609 469.303M62 404.839H1347.25M477.069 -167.329L477.069 469.303M62 365.717H1347.25M518.528 -167.329L518.528 469.303M62 326.594H1347.25M559.988 -167.329L559.988 469.303M62 287.471H1347.25M601.448 -167.329L601.448 469.303M62 248.349H1347.25M642.908 -167.329L642.907 469.303M62 209.226H1347.25M684.367 -167.329L684.367 469.303M62 170.104H1347.25M725.827 -167.329L725.827 469.303M62 130.981H1347.25M767.287 -167.329L767.287 469.303M62 91.8584H1347.25M808.747 -167.329L808.746 469.303M62 52.7357H1347.25M850.206 -167.329L850.206 469.303M62 13.6131H1347.25M891.666 -167.329L891.666 469.303M62 -25.5095H1347.25M933.126 -167.329L933.126 469.303M62 -64.6321H1347.25M974.585 -167.329L974.585 469.303M62 -103.755H1347.25M1016.05 -167.329L1016.05 469.303M62 -142.877H1347.25M1057.5 -167.329V469.303M62 -182L1347.25 -182M1098.96 -167.329V469.303M1140.42 -167.329V469.303M1181.88 -167.329V469.303M1223.34 -167.329V469.303M1264.8 -167.329V469.303M1306.26 -167.329V469.303M1347.72 -167.329V469.303" stroke="url(#paint0_radial_54642_217)"/>
</g>
<defs>
<filter id="filter0_f_54642_217" x="-685.668" y="-658.216" width="2874.65" height="1690.2" filterUnits="userSpaceOnUse" color-interpolation-filters="sRGB">
<feFlood flood-opacity="0" result="BackgroundImageFix"/>
<feBlend mode="normal" in="SourceGraphic" in2="BackgroundImageFix" result="shape"/>
<feGaussianBlur stdDeviation="132" result="effect1_foregroundBlur_54642_217"/>
</filter>
<filter id="filter1_f_54642_217" x="-750.201" y="888.051" width="2973.04" height="1828.93" filterUnits="userSpaceOnUse" color-interpolation-filters="sRGB">
<feFlood flood-opacity="0" result="BackgroundImageFix"/>
<feBlend mode="normal" in="SourceGraphic" in2="BackgroundImageFix" result="shape"/>
<feGaussianBlur stdDeviation="132" result="effect1_foregroundBlur_54642_217"/>
</filter>
<filter id="filter2_f_54642_217" x="-766.115" y="12507.1" width="2973.04" height="1828.93" filterUnits="userSpaceOnUse" color-interpolation-filters="sRGB">
<feFlood flood-opacity="0" result="BackgroundImageFix"/>
<feBlend mode="normal" in="SourceGraphic" in2="BackgroundImageFix" result="shape"/>
<feGaussianBlur stdDeviation="132" result="effect1_foregroundBlur_54642_217"/>
</filter>
<filter id="filter3_f_54642_217" x="-6386.73" y="2684.45" width="13385.6" height="7590.48" filterUnits="userSpaceOnUse" color-interpolation-filters="sRGB">
<feFlood flood-opacity="0" result="BackgroundImageFix"/>
<feBlend mode="normal" in="SourceGraphic" in2="BackgroundImageFix" result="shape"/>
<feGaussianBlur stdDeviation="132" result="effect1_foregroundBlur_54642_217"/>
</filter>
<filter id="filter4_f_54642_217" x="-5588.3" y="3192.12" width="10421.4" height="6589.01" filterUnits="userSpaceOnUse" color-interpolation-filters="sRGB">
<feFlood flood-opacity="0" result="BackgroundImageFix"/>
<feBlend mode="normal" in="SourceGraphic" in2="BackgroundImageFix" result="shape"/>
<feGaussianBlur stdDeviation="132" result="effect1_foregroundBlur_54642_217"/>
</filter>
<filter id="filter5_f_54642_217" x="-434.058" y="2974.56" width="2467.26" height="1654.2" filterUnits="userSpaceOnUse" color-interpolation-filters="sRGB">
<feFlood flood-opacity="0" result="BackgroundImageFix"/>
<feBlend mode="normal" in="SourceGraphic" in2="BackgroundImageFix" result="shape"/>
<feGaussianBlur stdDeviation="132" result="effect1_foregroundBlur_54642_217"/>
</filter>
<filter id="filter6_f_54642_217" x="-445.414" y="3474.72" width="2294.51" height="1614.82" filterUnits="userSpaceOnUse" color-interpolation-filters="sRGB">
<feFlood flood-opacity="0" result="BackgroundImageFix"/>
<feBlend mode="normal" in="SourceGraphic" in2="BackgroundImageFix" result="shape"/>
<feGaussianBlur stdDeviation="132" result="effect1_foregroundBlur_54642_217"/>
</filter>
<filter id="filter7_f_54642_217" x="-446.91" y="3904.96" width="2319.25" height="1620.32" filterUnits="userSpaceOnUse" color-interpolation-filters="sRGB">
<feFlood flood-opacity="0" result="BackgroundImageFix"/>
<feBlend mode="normal" in="SourceGraphic" in2="BackgroundImageFix" result="shape"/>
<feGaussianBlur stdDeviation="132" result="effect1_foregroundBlur_54642_217"/>
</filter>
<filter id="filter8_f_54642_217" x="-413.805" y="4313.56" width="2258.84" height="1606.98" filterUnits="userSpaceOnUse" color-interpolation-filters="sRGB">
<feFlood flood-opacity="0" result="BackgroundImageFix"/>
<feBlend mode="normal" in="SourceGraphic" in2="BackgroundImageFix" result="shape"/>
<feGaussianBlur stdDeviation="132" result="effect1_foregroundBlur_54642_217"/>
</filter>
<filter id="filter9_f_54642_217" x="-463.408" y="4545" width="2302.49" height="1616.59" filterUnits="userSpaceOnUse" color-interpolation-filters="sRGB">
<feFlood flood-opacity="0" result="BackgroundImageFix"/>
<feBlend mode="normal" in="SourceGraphic" in2="BackgroundImageFix" result="shape"/>
<feGaussianBlur stdDeviation="132" result="effect1_foregroundBlur_54642_217"/>
</filter>
<filter id="filter10_f_54642_217" x="-502.083" y="4786.04" width="2379.84" height="1478.68" filterUnits="userSpaceOnUse" color-interpolation-filters="sRGB">
<feFlood flood-opacity="0" result="BackgroundImageFix"/>
<feBlend mode="normal" in="SourceGraphic" in2="BackgroundImageFix" result="shape"/>
<feGaussianBlur stdDeviation="132" result="effect1_foregroundBlur_54642_217"/>
</filter>
<filter id="filter11_f_54642_217" x="-502.083" y="5197.04" width="2379.84" height="1478.68" filterUnits="userSpaceOnUse" color-interpolation-filters="sRGB">
<feFlood flood-opacity="0" result="BackgroundImageFix"/>
<feBlend mode="normal" in="SourceGraphic" in2="BackgroundImageFix" result="shape"/>
<feGaussianBlur stdDeviation="132" result="effect1_foregroundBlur_54642_217"/>
</filter>
<filter id="filter12_f_54642_217" x="-502.421" y="5608.04" width="2379.84" height="1478.68" filterUnits="userSpaceOnUse" color-interpolation-filters="sRGB">
<feFlood flood-opacity="0" result="BackgroundImageFix"/>
<feBlend mode="normal" in="SourceGraphic" in2="BackgroundImageFix" result="shape"/>
<feGaussianBlur stdDeviation="132" result="effect1_foregroundBlur_54642_217"/>
</filter>
<filter id="filter13_f_54642_217" x="-502.759" y="6019.04" width="2379.84" height="1478.68" filterUnits="userSpaceOnUse" color-interpolation-filters="sRGB">
<feFlood flood-opacity="0" result="BackgroundImageFix"/>
<feBlend mode="normal" in="SourceGraphic" in2="BackgroundImageFix" result="shape"/>
<feGaussianBlur stdDeviation="132" result="effect1_foregroundBlur_54642_217"/>
</filter>
<filter id="filter14_f_54642_217" x="-503.097" y="6430.04" width="2379.84" height="1478.68" filterUnits="userSpaceOnUse" color-interpolation-filters="sRGB">
<feFlood flood-opacity="0" result="BackgroundImageFix"/>
<feBlend mode="normal" in="SourceGraphic" in2="BackgroundImageFix" result="shape"/>
<feGaussianBlur stdDeviation="132" result="effect1_foregroundBlur_54642_217"/>
</filter>
<filter id="filter15_f_54642_217" x="-470.421" y="6733.04" width="2379.84" height="1478.68" filterUnits="userSpaceOnUse" color-interpolation-filters="sRGB">
<feFlood flood-opacity="0" result="BackgroundImageFix"/>
<feBlend mode="normal" in="SourceGraphic" in2="BackgroundImageFix" result="shape"/>
<feGaussianBlur stdDeviation="132" result="effect1_foregroundBlur_54642_217"/>
</filter>
<filter id="filter16_f_54642_217" x="-437.745" y="7036.04" width="2379.84" height="1478.68" filterUnits="userSpaceOnUse" color-interpolation-filters="sRGB">
<feFlood flood-opacity="0" result="BackgroundImageFix"/>
<feBlend mode="normal" in="SourceGraphic" in2="BackgroundImageFix" result="shape"/>
<feGaussianBlur stdDeviation="132" result="effect1_foregroundBlur_54642_217"/>
</filter>
<filter id="filter17_f_54642_217" x="-405.069" y="7339.04" width="2379.84" height="1478.68" filterUnits="userSpaceOnUse" color-interpolation-filters="sRGB">
<feFlood flood-opacity="0" result="BackgroundImageFix"/>
<feBlend mode="normal" in="SourceGraphic" in2="BackgroundImageFix" result="shape"/>
<feGaussianBlur stdDeviation="132" result="effect1_foregroundBlur_54642_217"/>
</filter>
<filter id="filter18_f_54642_217" x="-372.394" y="7642.04" width="2379.84" height="1478.68" filterUnits="userSpaceOnUse" color-interpolation-filters="sRGB">
<feFlood flood-opacity="0" result="BackgroundImageFix"/>
<feBlend mode="normal" in="SourceGraphic" in2="BackgroundImageFix" result="shape"/>
<feGaussianBlur stdDeviation="132" result="effect1_foregroundBlur_54642_217"/>
</filter>
<filter id="filter19_f_54642_217" x="-339.718" y="7945.04" width="2379.84" height="1478.68" filterUnits="userSpaceOnUse" color-interpolation-filters="sRGB">
<feFlood flood-opacity="0" result="BackgroundImageFix"/>
<feBlend mode="normal" in="SourceGraphic" in2="BackgroundImageFix" result="shape"/>
<feGaussianBlur stdDeviation="132" result="effect1_foregroundBlur_54642_217"/>
</filter>
<filter id="filter20_f_54642_217" x="-307.042" y="8248.04" width="2379.84" height="1478.68" filterUnits="userSpaceOnUse" color-interpolation-filters="sRGB">
<feFlood flood-opacity="0" result="BackgroundImageFix"/>
<feBlend mode="normal" in="SourceGraphic" in2="BackgroundImageFix" result="shape"/>
<feGaussianBlur stdDeviation="132" result="effect1_foregroundBlur_54642_217"/>
</filter>
<filter id="filter21_f_54642_217" x="-686.517" y="8131.8" width="3008.3" height="1782.61" filterUnits="userSpaceOnUse" color-interpolation-filters="sRGB">
<feFlood flood-opacity="0" result="BackgroundImageFix"/>
<feBlend mode="normal" in="SourceGraphic" in2="BackgroundImageFix" result="shape"/>
<feGaussianBlur stdDeviation="132" result="effect1_foregroundBlur_54642_217"/>
</filter>
<filter id="filter22_f_54642_217" x="-728.435" y="10312" width="3072.46" height="1621.58" filterUnits="userSpaceOnUse" color-interpolation-filters="sRGB">
<feFlood flood-opacity="0" result="BackgroundImageFix"/>
<feBlend mode="normal" in="SourceGraphic" in2="BackgroundImageFix" result="shape"/>
<feGaussianBlur stdDeviation="132" result="effect1_foregroundBlur_54642_217"/>
</filter>
<filter id="filter23_f_54642_217" x="-728.435" y="6238.97" width="3072.46" height="1621.58" filterUnits="userSpaceOnUse" color-interpolation-filters="sRGB">
<feFlood flood-opacity="0" result="BackgroundImageFix"/>
<feBlend mode="normal" in="SourceGraphic" in2="BackgroundImageFix" result="shape"/>
<feGaussianBlur stdDeviation="132" result="effect1_foregroundBlur_54642_217"/>
</filter>
<filter id="filter24_f_54642_217" x="-772.435" y="4450.97" width="3072.46" height="1621.58" filterUnits="userSpaceOnUse" color-interpolation-filters="sRGB">
<feFlood flood-opacity="0" result="BackgroundImageFix"/>
<feBlend mode="normal" in="SourceGraphic" in2="BackgroundImageFix" result="shape"/>
<feGaussianBlur stdDeviation="132" result="effect1_foregroundBlur_54642_217"/>
</filter>
<radialGradient id="paint0_radial_54642_217" cx="0" cy="0" r="1" gradientUnits="userSpaceOnUse" gradientTransform="translate(704.862 105) rotate(90) scale(364.303 719.163)">
<stop stop-color="white" stop-opacity="0.12"/>
<stop offset="0.6" stop-color="white" stop-opacity="0"/>
</radialGradient>
<clipPath id="clip0_54642_217">
<rect width="1440" height="14101" fill="white"/>
</clipPath>
</defs>
</svg>
