<svg width="1440" height="419" viewBox="0 0 1440 419" fill="none" xmlns="http://www.w3.org/2000/svg">
<g filter="url(#filter0_d_54682_123)">
<path d="M995.69 25.8586C996.483 23.7138 999.517 23.7138 1000.31 25.8586L1004.26 36.5339C1004.51 37.2082 1005.04 37.7398 1005.72 37.9894L1016.39 41.9396C1018.54 42.7332 1018.54 45.7668 1016.39 46.5604L1005.72 50.5106C1005.04 50.7602 1004.51 51.2918 1004.26 51.9661L1000.31 62.6414C999.517 64.7862 996.483 64.7862 995.69 62.6414L991.739 51.9661C991.49 51.2918 990.958 50.7602 990.284 50.5106L979.609 46.5604C977.464 45.7668 977.464 42.7332 979.609 41.9396L990.284 37.9894C990.958 37.7398 991.49 37.2082 991.739 36.5339L995.69 25.8586Z" fill="#A436F1" stroke="#A436F1" stroke-width="4" stroke-linejoin="round"/>
</g>
<g filter="url(#filter1_d_54682_123)">
<path d="M375.69 50.8586C376.483 48.7138 379.517 48.7138 380.31 50.8586L384.261 61.5339C384.51 62.2082 385.042 62.7398 385.716 62.9894L396.391 66.9396C398.536 67.7332 398.536 70.7668 396.391 71.5604L385.716 75.5106C385.042 75.7602 384.51 76.2918 384.261 76.9661L380.31 87.6414C379.517 89.7862 376.483 89.7862 375.69 87.6414L371.739 76.9661C371.49 76.2918 370.958 75.7602 370.284 75.5106L359.609 71.5604C357.464 70.7668 357.464 67.7332 359.609 66.9396L370.284 62.9894C370.958 62.7398 371.49 62.2082 371.739 61.5339L375.69 50.8586Z" fill="#A436F1" stroke="#A436F1" stroke-width="4" stroke-linejoin="round"/>
</g>
<g filter="url(#filter2_d_54682_123)">
<path d="M1109.61 83.2152C1110.09 81.9283 1111.91 81.9283 1112.39 83.2152L1114.76 89.6203C1114.91 90.0249 1115.23 90.3439 1115.63 90.4936L1122.03 92.8637C1123.32 93.3399 1123.32 95.1601 1122.03 95.6363L1115.63 98.0064C1115.23 98.1561 1114.91 98.4751 1114.76 98.8797L1112.39 105.285C1111.91 106.572 1110.09 106.572 1109.61 105.285L1107.24 98.8797C1107.09 98.4751 1106.77 98.1561 1106.37 98.0064L1099.97 95.6363C1098.68 95.1601 1098.68 93.3399 1099.97 92.8637L1106.37 90.4936C1106.77 90.3439 1107.09 90.0249 1107.24 89.6203L1109.61 83.2152Z" fill="#A436F1" stroke="#A436F1" stroke-width="4" stroke-linejoin="round"/>
</g>
<g filter="url(#filter3_d_54682_123)">
<path d="M196.614 98.2152C197.09 96.9283 198.91 96.9283 199.386 98.2152L201.756 104.62C201.906 105.025 202.225 105.344 202.63 105.494L209.035 107.864C210.322 108.34 210.322 110.16 209.035 110.636L202.63 113.006C202.225 113.156 201.906 113.475 201.756 113.88L199.386 120.285C198.91 121.572 197.09 121.572 196.614 120.285L194.244 113.88C194.094 113.475 193.775 113.156 193.37 113.006L186.965 110.636C185.678 110.16 185.678 108.34 186.965 107.864L193.37 105.494C193.775 105.344 194.094 105.025 194.244 104.62L196.614 98.2152Z" fill="#A436F1" stroke="#A436F1" stroke-width="4" stroke-linejoin="round"/>
</g>
<g filter="url(#filter4_d_54682_123)">
<path d="M101.152 237.537C101.787 235.821 104.213 235.821 104.848 237.537L108.009 246.077C108.208 246.617 108.633 247.042 109.173 247.241L117.713 250.402C119.429 251.037 119.429 253.463 117.713 254.098L109.173 257.259C108.633 257.458 108.208 257.883 108.009 258.423L104.848 266.963C104.213 268.679 101.787 268.679 101.152 266.963L97.9915 258.423C97.7919 257.883 97.3666 257.458 96.8271 257.259L88.2869 254.098C86.571 253.463 86.571 251.037 88.2869 250.402L96.8271 247.241C97.3666 247.042 97.7919 246.617 97.9915 246.077L101.152 237.537Z" fill="#A436F1" stroke="#A436F1" stroke-width="4" stroke-linejoin="round"/>
</g>
<g filter="url(#filter5_d_54682_123)">
<path d="M1226.61 276.215C1227.09 274.928 1228.91 274.928 1229.39 276.215L1231.76 282.62C1231.91 283.025 1232.23 283.344 1232.63 283.494L1239.03 285.864C1240.32 286.34 1240.32 288.16 1239.03 288.636L1232.63 291.006C1232.23 291.156 1231.91 291.475 1231.76 291.88L1229.39 298.285C1228.91 299.572 1227.09 299.572 1226.61 298.285L1224.24 291.88C1224.09 291.475 1223.77 291.156 1223.37 291.006L1216.97 288.636C1215.68 288.16 1215.68 286.34 1216.97 285.864L1223.37 283.494C1223.77 283.344 1224.09 283.025 1224.24 282.62L1226.61 276.215Z" fill="#A436F1" stroke="#A436F1" stroke-width="4" stroke-linejoin="round"/>
</g>
<g opacity="0.6" filter="url(#filter6_d_54682_123)">
<path d="M571.624 123V76.4545H588.669C591.972 76.4545 594.707 77 596.874 78.0909C599.04 79.1667 600.662 80.6288 601.737 82.4773C602.813 84.3106 603.351 86.3788 603.351 88.6818C603.351 90.6212 602.995 92.2576 602.283 93.5909C601.571 94.9091 600.616 95.9697 599.419 96.7727C598.237 97.5606 596.934 98.1364 595.51 98.5V98.9545C597.055 99.0303 598.563 99.5303 600.033 100.455C601.518 101.364 602.745 102.659 603.715 104.341C604.684 106.023 605.169 108.068 605.169 110.477C605.169 112.856 604.608 114.992 603.487 116.886C602.381 118.765 600.669 120.258 598.351 121.364C596.033 122.455 593.071 123 589.465 123H571.624ZM578.646 116.977H588.783C592.146 116.977 594.555 116.326 596.01 115.023C597.465 113.72 598.192 112.091 598.192 110.136C598.192 108.667 597.821 107.318 597.078 106.091C596.336 104.864 595.275 103.886 593.896 103.159C592.533 102.432 590.912 102.068 589.033 102.068H578.646V116.977ZM578.646 96.5909H588.055C589.631 96.5909 591.048 96.2879 592.305 95.6818C593.578 95.0758 594.586 94.2273 595.328 93.1364C596.086 92.0303 596.465 90.7273 596.465 89.2273C596.465 87.303 595.79 85.6894 594.442 84.3864C593.093 83.0833 591.025 82.4318 588.237 82.4318H578.646V96.5909ZM621.832 123.773C619.62 123.773 617.62 123.364 615.832 122.545C614.044 121.712 612.628 120.508 611.582 118.932C610.552 117.356 610.037 115.424 610.037 113.136C610.037 111.167 610.416 109.545 611.173 108.273C611.931 107 612.953 105.992 614.241 105.25C615.529 104.508 616.969 103.947 618.56 103.568C620.15 103.189 621.772 102.902 623.423 102.705C625.514 102.462 627.211 102.265 628.514 102.114C629.817 101.947 630.764 101.682 631.355 101.318C631.946 100.955 632.241 100.364 632.241 99.5455V99.3864C632.241 97.4015 631.681 95.8636 630.56 94.7727C629.453 93.6818 627.802 93.1364 625.605 93.1364C623.317 93.1364 621.514 93.6439 620.196 94.6591C618.893 95.6591 617.991 96.7727 617.491 98L611.105 96.5455C611.863 94.4242 612.969 92.7121 614.423 91.4091C615.893 90.0909 617.582 89.1364 619.491 88.5455C621.4 87.9394 623.408 87.6364 625.514 87.6364C626.908 87.6364 628.385 87.803 629.946 88.1364C631.522 88.4545 632.991 89.0455 634.355 89.9091C635.734 90.7727 636.863 92.0076 637.741 93.6136C638.62 95.2045 639.06 97.2727 639.06 99.8182V123H632.423V118.227H632.15C631.711 119.106 631.052 119.97 630.173 120.818C629.294 121.667 628.166 122.371 626.787 122.932C625.408 123.492 623.757 123.773 621.832 123.773ZM623.31 118.318C625.188 118.318 626.794 117.947 628.128 117.205C629.476 116.462 630.499 115.492 631.196 114.295C631.908 113.083 632.264 111.788 632.264 110.409V105.909C632.022 106.152 631.552 106.379 630.855 106.591C630.173 106.788 629.393 106.962 628.514 107.114C627.635 107.25 626.779 107.379 625.946 107.5C625.113 107.606 624.416 107.697 623.855 107.773C622.537 107.939 621.332 108.22 620.241 108.614C619.166 109.008 618.302 109.576 617.65 110.318C617.014 111.045 616.696 112.015 616.696 113.227C616.696 114.909 617.317 116.182 618.56 117.045C619.802 117.894 621.385 118.318 623.31 118.318ZM661.535 123.705C658.156 123.705 655.247 122.939 652.808 121.409C650.384 119.864 648.52 117.735 647.217 115.023C645.914 112.311 645.262 109.205 645.262 105.705C645.262 102.159 645.929 99.0303 647.262 96.3182C648.596 93.5909 650.475 91.4621 652.899 89.9318C655.323 88.4015 658.179 87.6364 661.467 87.6364C664.119 87.6364 666.482 88.1288 668.558 89.1136C670.634 90.0833 672.308 91.447 673.581 93.2045C674.869 94.9621 675.634 97.0152 675.876 99.3636H669.262C668.899 97.7273 668.066 96.3182 666.762 95.1364C665.475 93.9545 663.747 93.3636 661.581 93.3636C659.687 93.3636 658.028 93.8636 656.603 94.8636C655.194 95.8485 654.096 97.2576 653.308 99.0909C652.52 100.909 652.126 103.061 652.126 105.545C652.126 108.091 652.512 110.288 653.285 112.136C654.058 113.985 655.149 115.417 656.558 116.432C657.982 117.447 659.656 117.955 661.581 117.955C662.869 117.955 664.035 117.72 665.081 117.25C666.141 116.765 667.028 116.076 667.74 115.182C668.467 114.288 668.975 113.212 669.262 111.955H675.876C675.634 114.212 674.899 116.227 673.672 118C672.444 119.773 670.8 121.167 668.74 122.182C666.694 123.197 664.293 123.705 661.535 123.705ZM688.113 111.159L688.068 102.864H689.25L703.159 88.0909H711.295L695.431 104.909H694.363L688.113 111.159ZM681.863 123V76.4545H688.659V123H681.863ZM703.909 123L691.409 106.409L696.09 101.659L712.25 123H703.909ZM729.816 123.705C726.377 123.705 723.415 122.97 720.93 121.5C718.46 120.015 716.551 117.932 715.202 115.25C713.869 112.553 713.202 109.394 713.202 105.773C713.202 102.197 713.869 99.0455 715.202 96.3182C716.551 93.5909 718.43 91.4621 720.839 89.9318C723.263 88.4015 726.096 87.6364 729.339 87.6364C731.309 87.6364 733.218 87.9621 735.066 88.6136C736.915 89.2652 738.574 90.2879 740.043 91.6818C741.513 93.0758 742.672 94.8864 743.521 97.1136C744.369 99.3258 744.793 102.015 744.793 105.182V107.591H717.043V102.5H738.134C738.134 100.712 737.771 99.1288 737.043 97.75C736.316 96.3561 735.293 95.2576 733.975 94.4545C732.672 93.6515 731.142 93.25 729.384 93.25C727.475 93.25 725.809 93.7197 724.384 94.6591C722.975 95.5833 721.884 96.7955 721.112 98.2955C720.354 99.7803 719.975 101.394 719.975 103.136V107.114C719.975 109.447 720.384 111.432 721.202 113.068C722.036 114.705 723.195 115.955 724.68 116.818C726.165 117.667 727.899 118.091 729.884 118.091C731.172 118.091 732.346 117.909 733.407 117.545C734.468 117.167 735.384 116.606 736.157 115.864C736.93 115.121 737.521 114.205 737.93 113.114L744.362 114.273C743.846 116.167 742.922 117.826 741.589 119.25C740.271 120.659 738.612 121.758 736.612 122.545C734.627 123.318 732.362 123.705 729.816 123.705ZM764.121 123.682C761.303 123.682 758.788 122.962 756.576 121.523C754.379 120.068 752.652 118 751.394 115.318C750.152 112.621 749.53 109.386 749.53 105.614C749.53 101.841 750.159 98.6136 751.417 95.9318C752.69 93.25 754.432 91.197 756.644 89.7727C758.856 88.3485 761.364 87.6364 764.167 87.6364C766.333 87.6364 768.076 88 769.394 88.7273C770.727 89.4394 771.758 90.2727 772.485 91.2273C773.227 92.1818 773.803 93.0227 774.212 93.75H774.621V76.4545H781.417V123H774.78V117.568H774.212C773.803 118.311 773.212 119.159 772.44 120.114C771.682 121.068 770.637 121.902 769.303 122.614C767.97 123.326 766.243 123.682 764.121 123.682ZM765.621 117.886C767.576 117.886 769.227 117.371 770.576 116.341C771.94 115.295 772.97 113.848 773.667 112C774.379 110.152 774.735 108 774.735 105.545C774.735 103.121 774.387 101 773.69 99.1818C772.993 97.3636 771.97 95.947 770.621 94.9318C769.273 93.9167 767.606 93.4091 765.621 93.4091C763.576 93.4091 761.871 93.9394 760.508 95C759.144 96.0606 758.114 97.5076 757.417 99.3409C756.735 101.174 756.394 103.242 756.394 105.545C756.394 107.879 756.743 109.977 757.44 111.841C758.137 113.705 759.167 115.182 760.53 116.273C761.909 117.348 763.606 117.886 765.621 117.886ZM806.039 123V76.4545H812.834V93.75H813.243C813.637 93.0227 814.205 92.1818 814.948 91.2273C815.69 90.2727 816.72 89.4394 818.039 88.7273C819.357 88 821.099 87.6364 823.266 87.6364C826.084 87.6364 828.599 88.3485 830.811 89.7727C833.023 91.197 834.758 93.25 836.016 95.9318C837.289 98.6136 837.925 101.841 837.925 105.614C837.925 109.386 837.296 112.621 836.039 115.318C834.781 118 833.054 120.068 830.857 121.523C828.66 122.962 826.152 123.682 823.334 123.682C821.213 123.682 819.478 123.326 818.13 122.614C816.796 121.902 815.751 121.068 814.993 120.114C814.236 119.159 813.652 118.311 813.243 117.568H812.675V123H806.039ZM812.698 105.545C812.698 108 813.054 110.152 813.766 112C814.478 113.848 815.508 115.295 816.857 116.341C818.205 117.371 819.857 117.886 821.811 117.886C823.842 117.886 825.539 117.348 826.902 116.273C828.266 115.182 829.296 113.705 829.993 111.841C830.705 109.977 831.061 107.879 831.061 105.545C831.061 103.242 830.713 101.174 830.016 99.3409C829.334 97.5076 828.304 96.0606 826.925 95C825.561 93.9394 823.857 93.4091 821.811 93.4091C819.842 93.4091 818.175 93.9167 816.811 94.9318C815.463 95.947 814.44 97.3636 813.743 99.1818C813.046 101 812.698 103.121 812.698 105.545ZM847.384 136.091C846.369 136.091 845.444 136.008 844.611 135.841C843.778 135.689 843.156 135.523 842.747 135.341L844.384 129.773C845.626 130.106 846.732 130.25 847.702 130.205C848.672 130.159 849.528 129.795 850.27 129.114C851.028 128.432 851.694 127.318 852.27 125.773L853.111 123.455L840.338 88.0909H847.611L856.452 115.182H856.815L865.656 88.0909H872.952L858.565 127.659C857.899 129.477 857.05 131.015 856.02 132.273C854.99 133.545 853.762 134.5 852.338 135.136C850.914 135.773 849.262 136.091 847.384 136.091Z" fill="url(#paint0_linear_54682_123)"/>
</g>
<g filter="url(#filter7_d_54682_123)">
<path d="M273.91 248.32C268.116 248.32 262.763 247.293 257.85 245.24C253.01 243.113 248.756 240.143 245.09 236.33C241.496 232.517 238.71 228.043 236.73 222.91C234.75 217.777 233.76 212.167 233.76 206.08C233.76 199.92 234.75 194.273 236.73 189.14C238.71 184.007 241.496 179.533 245.09 175.72C248.683 171.907 252.936 168.973 257.85 166.92C262.763 164.793 268.116 163.73 273.91 163.73C279.556 163.73 284.616 164.72 289.09 166.7C293.636 168.68 297.45 171.247 300.53 174.4C303.683 177.553 305.92 180.927 307.24 184.52L297.34 189.03C295.433 184.483 292.463 180.817 288.43 178.03C284.396 175.17 279.556 173.74 273.91 173.74C268.19 173.74 263.093 175.097 258.62 177.81C254.22 180.523 250.773 184.3 248.28 189.14C245.786 193.98 244.54 199.627 244.54 206.08C244.54 212.46 245.786 218.07 248.28 222.91C250.773 227.75 254.22 231.527 258.62 234.24C263.093 236.953 268.19 238.31 273.91 238.31C279.556 238.31 284.396 236.917 288.43 234.13C292.463 231.27 295.433 227.567 297.34 223.02L307.24 227.53C305.92 231.123 303.683 234.497 300.53 237.65C297.45 240.803 293.636 243.37 289.09 245.35C284.616 247.33 279.556 248.32 273.91 248.32ZM345.578 248.32C339.858 248.32 334.688 247 330.068 244.36C325.448 241.647 321.781 237.943 319.068 233.25C316.355 228.557 314.998 223.24 314.998 217.3C314.998 211.36 316.318 206.08 318.958 201.46C321.671 196.84 325.338 193.173 329.958 190.46C334.578 187.747 339.785 186.39 345.578 186.39C351.298 186.39 356.468 187.747 361.088 190.46C365.708 193.1 369.338 196.73 371.978 201.35C374.691 205.97 376.048 211.287 376.048 217.3C376.048 223.313 374.655 228.667 371.868 233.36C369.081 237.98 365.378 241.647 360.758 244.36C356.211 247 351.151 248.32 345.578 248.32ZM345.578 238.42C349.245 238.42 352.545 237.503 355.478 235.67C358.485 233.837 360.831 231.307 362.518 228.08C364.278 224.853 365.158 221.26 365.158 217.3C365.158 213.267 364.278 209.71 362.518 206.63C360.831 203.477 358.485 200.983 355.478 199.15C352.545 197.243 349.245 196.29 345.578 196.29C341.838 196.29 338.465 197.243 335.458 199.15C332.525 200.983 330.178 203.477 328.418 206.63C326.658 209.71 325.778 213.267 325.778 217.3C325.778 221.26 326.658 224.853 328.418 228.08C330.178 231.307 332.525 233.837 335.458 235.67C338.465 237.503 341.838 238.42 345.578 238.42ZM415.461 271.2C411.281 271.2 407.394 270.54 403.801 269.22C400.281 267.9 397.237 266.067 394.671 263.72C392.177 261.447 390.271 258.77 388.951 255.69L398.521 251.29C399.547 254.077 401.491 256.423 404.351 258.33C407.284 260.31 410.951 261.3 415.351 261.3C418.724 261.3 421.767 260.64 424.481 259.32C427.267 258.073 429.467 256.167 431.081 253.6C432.694 251.107 433.501 248.063 433.501 244.47V231.16L435.371 233.14C433.317 237.173 430.347 240.253 426.461 242.38C422.647 244.507 418.431 245.57 413.811 245.57C408.237 245.57 403.251 244.287 398.851 241.72C394.451 239.08 391.004 235.523 388.511 231.05C386.017 226.503 384.771 221.48 384.771 215.98C384.771 210.407 386.017 205.383 388.511 200.91C391.004 196.437 394.414 192.917 398.741 190.35C403.141 187.71 408.127 186.39 413.701 186.39C418.321 186.39 422.501 187.453 426.241 189.58C430.054 191.633 433.097 194.493 435.371 198.16L433.831 200.91V187.71H443.841V244.47C443.841 249.603 442.631 254.187 440.211 258.22C437.791 262.253 434.417 265.407 430.091 267.68C425.837 270.027 420.961 271.2 415.461 271.2ZM414.691 235.67C418.211 235.67 421.364 234.79 424.151 233.03C427.011 231.27 429.284 228.923 430.971 225.99C432.657 222.983 433.501 219.647 433.501 215.98C433.501 212.387 432.657 209.087 430.971 206.08C429.284 203.073 427.011 200.69 424.151 198.93C421.364 197.17 418.211 196.29 414.691 196.29C411.097 196.29 407.834 197.17 404.901 198.93C401.967 200.69 399.657 203.073 397.971 206.08C396.357 209.013 395.551 212.313 395.551 215.98C395.551 219.647 396.357 222.983 397.971 225.99C399.657 228.923 401.931 231.27 404.791 233.03C407.724 234.79 411.024 235.67 414.691 235.67ZM457.5 247V187.71H467.51V199.26L465.86 198.27C467.327 194.53 469.674 191.633 472.9 189.58C476.2 187.453 480.05 186.39 484.45 186.39C488.704 186.39 492.48 187.343 495.78 189.25C499.154 191.157 501.794 193.797 503.7 197.17C505.68 200.543 506.67 204.357 506.67 208.61V247H496.33V211.91C496.33 208.61 495.744 205.823 494.57 203.55C493.397 201.277 491.71 199.517 489.51 198.27C487.384 196.95 484.927 196.29 482.14 196.29C479.354 196.29 476.86 196.95 474.66 198.27C472.534 199.517 470.847 201.313 469.6 203.66C468.354 205.933 467.73 208.683 467.73 211.91V247H457.5ZM519.109 247V187.71H529.339V247H519.109ZM519.109 178.25V165.05H529.339V178.25H519.109ZM567.103 247.66C561.309 247.66 556.836 246.01 553.683 242.71C550.603 239.41 549.063 234.753 549.063 228.74V197.5H538.283V187.71H540.483C543.123 187.71 545.213 186.903 546.753 185.29C548.293 183.677 549.063 181.55 549.063 178.91V174.07H559.293V187.71H572.603V197.5H559.293V228.41C559.293 230.39 559.586 232.113 560.173 233.58C560.833 235.047 561.896 236.22 563.363 237.1C564.829 237.907 566.773 238.31 569.193 238.31C569.706 238.31 570.329 238.273 571.063 238.2C571.869 238.127 572.603 238.053 573.263 237.98V247C572.309 247.22 571.246 247.367 570.073 247.44C568.899 247.587 567.909 247.66 567.103 247.66ZM584.426 247V187.71H594.656V247H584.426ZM584.426 178.25V165.05H594.656V178.25H584.426ZM624.829 247L601.619 187.71H613.059L631.649 237.87H627.689L646.389 187.71H657.829L634.509 247H624.829ZM690.988 248.32C685.268 248.32 680.171 246.963 675.698 244.25C671.224 241.537 667.704 237.833 665.138 233.14C662.571 228.373 661.288 223.057 661.288 217.19C661.288 211.25 662.534 205.97 665.028 201.35C667.594 196.73 671.041 193.1 675.368 190.46C679.768 187.747 684.681 186.39 690.108 186.39C694.508 186.39 698.394 187.197 701.768 188.81C705.214 190.35 708.111 192.477 710.458 195.19C712.878 197.83 714.711 200.873 715.958 204.32C717.278 207.693 717.938 211.213 717.938 214.88C717.938 215.687 717.864 216.603 717.718 217.63C717.644 218.583 717.534 219.5 717.388 220.38H668.768V211.58H711.448L706.608 215.54C707.268 211.727 706.901 208.317 705.508 205.31C704.114 202.303 702.061 199.92 699.348 198.16C696.634 196.4 693.554 195.52 690.108 195.52C686.661 195.52 683.508 196.4 680.648 198.16C677.788 199.92 675.551 202.45 673.938 205.75C672.398 208.977 671.774 212.827 672.068 217.3C671.774 221.627 672.434 225.44 674.048 228.74C675.734 231.967 678.081 234.497 681.088 236.33C684.168 238.09 687.504 238.97 691.098 238.97C695.058 238.97 698.394 238.053 701.108 236.22C703.821 234.387 706.021 232.04 707.708 229.18L716.288 233.58C715.114 236.293 713.281 238.787 710.788 241.06C708.368 243.26 705.471 245.02 702.098 246.34C698.798 247.66 695.094 248.32 690.988 248.32ZM747.1 247V165.05H776.03C781.456 165.05 786.223 166.077 790.33 168.13C794.436 170.183 797.626 173.117 799.9 176.93C802.246 180.743 803.42 185.217 803.42 190.35C803.42 196.143 801.953 201.057 799.02 205.09C796.086 209.123 792.126 212.02 787.14 213.78L806.17 247H793.63L773.61 211.47L780.76 215.65H757.88V247H747.1ZM757.88 205.75H776.36C779.586 205.75 782.41 205.127 784.83 203.88C787.25 202.633 789.12 200.837 790.44 198.49C791.833 196.143 792.53 193.43 792.53 190.35C792.53 187.197 791.833 184.483 790.44 182.21C789.12 179.863 787.25 178.067 784.83 176.82C782.41 175.573 779.586 174.95 776.36 174.95H757.88V205.75ZM838.968 248.32C833.248 248.32 828.151 246.963 823.678 244.25C819.204 241.537 815.684 237.833 813.118 233.14C810.551 228.373 809.268 223.057 809.268 217.19C809.268 211.25 810.514 205.97 813.008 201.35C815.574 196.73 819.021 193.1 823.348 190.46C827.748 187.747 832.661 186.39 838.088 186.39C842.488 186.39 846.374 187.197 849.748 188.81C853.194 190.35 856.091 192.477 858.438 195.19C860.858 197.83 862.691 200.873 863.938 204.32C865.258 207.693 865.918 211.213 865.918 214.88C865.918 215.687 865.844 216.603 865.698 217.63C865.624 218.583 865.514 219.5 865.368 220.38H816.748V211.58H859.428L854.588 215.54C855.248 211.727 854.881 208.317 853.488 205.31C852.094 202.303 850.041 199.92 847.328 198.16C844.614 196.4 841.534 195.52 838.088 195.52C834.641 195.52 831.488 196.4 828.628 198.16C825.768 199.92 823.531 202.45 821.918 205.75C820.378 208.977 819.754 212.827 820.048 217.3C819.754 221.627 820.414 225.44 822.028 228.74C823.714 231.967 826.061 234.497 829.068 236.33C832.148 238.09 835.484 238.97 839.078 238.97C843.038 238.97 846.374 238.053 849.088 236.22C851.801 234.387 854.001 232.04 855.688 229.18L864.268 233.58C863.094 236.293 861.261 238.787 858.768 241.06C856.348 243.26 853.451 245.02 850.078 246.34C846.778 247.66 843.074 248.32 838.968 248.32ZM898.286 248.32C892.346 248.32 887.176 246.853 882.776 243.92C878.376 240.987 875.259 237.027 873.426 232.04L881.566 228.08C883.253 231.6 885.563 234.387 888.496 236.44C891.429 238.493 894.693 239.52 898.286 239.52C901.513 239.52 904.189 238.75 906.316 237.21C908.443 235.67 909.506 233.653 909.506 231.16C909.506 229.4 908.993 228.007 907.966 226.98C907.013 225.88 905.839 225.037 904.446 224.45C903.053 223.79 901.769 223.313 900.596 223.02L891.686 220.49C886.333 218.95 882.409 216.75 879.916 213.89C877.496 211.03 876.286 207.693 876.286 203.88C876.286 200.36 877.166 197.317 878.926 194.75C880.759 192.11 883.216 190.057 886.296 188.59C889.449 187.123 892.969 186.39 896.856 186.39C902.063 186.39 906.719 187.71 910.826 190.35C915.006 192.99 917.976 196.693 919.736 201.46L911.376 205.31C910.056 202.23 908.076 199.81 905.436 198.05C902.796 196.217 899.826 195.3 896.526 195.3C893.519 195.3 891.136 196.07 889.376 197.61C887.616 199.077 886.736 200.947 886.736 203.22C886.736 204.907 887.176 206.3 888.056 207.4C888.936 208.427 889.999 209.233 891.246 209.82C892.493 210.333 893.703 210.773 894.876 211.14L904.556 214C909.396 215.393 913.136 217.557 915.776 220.49C918.489 223.423 919.846 226.943 919.846 231.05C919.846 234.35 918.929 237.32 917.096 239.96C915.263 242.6 912.733 244.653 909.506 246.12C906.279 247.587 902.539 248.32 898.286 248.32ZM958.318 248.32C952.598 248.32 947.501 246.963 943.028 244.25C938.554 241.537 935.034 237.833 932.468 233.14C929.901 228.373 928.618 223.057 928.618 217.19C928.618 211.25 929.864 205.97 932.358 201.35C934.924 196.73 938.371 193.1 942.698 190.46C947.098 187.747 952.011 186.39 957.438 186.39C961.838 186.39 965.724 187.197 969.098 188.81C972.544 190.35 975.441 192.477 977.788 195.19C980.208 197.83 982.041 200.873 983.288 204.32C984.608 207.693 985.268 211.213 985.268 214.88C985.268 215.687 985.194 216.603 985.048 217.63C984.974 218.583 984.864 219.5 984.718 220.38H936.098V211.58H978.778L973.938 215.54C974.598 211.727 974.231 208.317 972.838 205.31C971.444 202.303 969.391 199.92 966.678 198.16C963.964 196.4 960.884 195.52 957.438 195.52C953.991 195.52 950.838 196.4 947.978 198.16C945.118 199.92 942.881 202.45 941.268 205.75C939.728 208.977 939.104 212.827 939.398 217.3C939.104 221.627 939.764 225.44 941.378 228.74C943.064 231.967 945.411 234.497 948.418 236.33C951.498 238.09 954.834 238.97 958.428 238.97C962.388 238.97 965.724 238.053 968.438 236.22C971.151 234.387 973.351 232.04 975.038 229.18L983.618 233.58C982.444 236.293 980.611 238.787 978.118 241.06C975.698 243.26 972.801 245.02 969.428 246.34C966.128 247.66 962.424 248.32 958.318 248.32ZM1013.03 248.32C1009.15 248.32 1005.7 247.623 1002.69 246.23C999.761 244.763 997.451 242.783 995.764 240.29C994.077 237.723 993.234 234.79 993.234 231.49C993.234 228.337 993.894 225.513 995.214 223.02C996.607 220.453 998.734 218.29 1001.59 216.53C1004.53 214.77 1008.19 213.523 1012.59 212.79L1034.59 209.16V217.74L1014.9 221.04C1011.09 221.7 1008.3 222.91 1006.54 224.67C1004.86 226.43 1004.01 228.593 1004.01 231.16C1004.01 233.58 1004.97 235.597 1006.87 237.21C1008.85 238.823 1011.31 239.63 1014.24 239.63C1017.98 239.63 1021.21 238.86 1023.92 237.32C1026.71 235.707 1028.87 233.543 1030.41 230.83C1032.03 228.117 1032.83 225.11 1032.83 221.81V206.74C1032.83 203.513 1031.62 200.91 1029.2 198.93C1026.86 196.877 1023.74 195.85 1019.85 195.85C1016.48 195.85 1013.47 196.73 1010.83 198.49C1008.27 200.177 1006.36 202.45 1005.11 205.31L996.204 200.69C997.304 197.977 999.064 195.557 1001.48 193.43C1003.9 191.23 1006.73 189.507 1009.95 188.26C1013.18 187.013 1016.55 186.39 1020.07 186.39C1024.62 186.39 1028.62 187.27 1032.06 189.03C1035.51 190.717 1038.19 193.1 1040.09 196.18C1042.07 199.187 1043.06 202.707 1043.06 206.74V247H1033.05V235.78L1034.92 236.44C1033.68 238.787 1031.99 240.84 1029.86 242.6C1027.74 244.36 1025.24 245.753 1022.38 246.78C1019.52 247.807 1016.41 248.32 1013.03 248.32ZM1056.73 247V187.71H1066.74V198.6L1065.64 197.06C1067.03 193.687 1069.16 191.193 1072.02 189.58C1074.88 187.893 1078.36 187.05 1082.47 187.05H1086.1V196.73H1080.93C1076.75 196.73 1073.37 198.05 1070.81 200.69C1068.24 203.257 1066.96 206.923 1066.96 211.69V247H1056.73ZM1120.48 248.32C1114.69 248.32 1109.52 246.963 1104.97 244.25C1100.5 241.537 1096.98 237.833 1094.41 233.14C1091.85 228.447 1090.56 223.167 1090.56 217.3C1090.56 211.36 1091.85 206.08 1094.41 201.46C1096.98 196.84 1100.5 193.173 1104.97 190.46C1109.52 187.747 1114.69 186.39 1120.48 186.39C1124.37 186.39 1128 187.087 1131.37 188.48C1134.75 189.873 1137.72 191.743 1140.28 194.09C1142.85 196.437 1144.72 199.187 1145.89 202.34L1136.76 206.74C1135.37 203.66 1133.24 201.167 1130.38 199.26C1127.52 197.28 1124.22 196.29 1120.48 196.29C1116.89 196.29 1113.63 197.207 1110.69 199.04C1107.83 200.873 1105.56 203.367 1103.87 206.52C1102.19 209.673 1101.34 213.303 1101.34 217.41C1101.34 221.37 1102.19 224.963 1103.87 228.19C1105.56 231.343 1107.83 233.837 1110.69 235.67C1113.63 237.503 1116.89 238.42 1120.48 238.42C1124.22 238.42 1127.52 237.467 1130.38 235.56C1133.24 233.58 1135.37 230.977 1136.76 227.75L1145.89 232.37C1144.72 235.45 1142.85 238.2 1140.28 240.62C1137.72 242.967 1134.75 244.837 1131.37 246.23C1128 247.623 1124.37 248.32 1120.48 248.32ZM1157.06 247V163.73H1167.29V199.26L1165.42 198.27C1166.89 194.53 1169.24 191.633 1172.46 189.58C1175.76 187.453 1179.61 186.39 1184.01 186.39C1188.27 186.39 1192.04 187.343 1195.34 189.25C1198.72 191.157 1201.36 193.797 1203.26 197.17C1205.24 200.543 1206.23 204.357 1206.23 208.61V247H1195.89V211.91C1195.89 208.61 1195.27 205.823 1194.02 203.55C1192.85 201.277 1191.2 199.517 1189.07 198.27C1186.95 196.95 1184.49 196.29 1181.7 196.29C1178.99 196.29 1176.53 196.95 1174.33 198.27C1172.13 199.517 1170.41 201.313 1169.16 203.66C1167.92 205.933 1167.29 208.683 1167.29 211.91V247H1157.06Z" fill="url(#paint1_linear_54682_123)"/>
</g>
<defs>
<filter id="filter0_d_54682_123" x="963" y="9.25" width="70" height="70" filterUnits="userSpaceOnUse" color-interpolation-filters="sRGB">
<feFlood flood-opacity="0" result="BackgroundImageFix"/>
<feColorMatrix in="SourceAlpha" type="matrix" values="0 0 0 0 0 0 0 0 0 0 0 0 0 0 0 0 0 0 127 0" result="hardAlpha"/>
<feOffset/>
<feGaussianBlur stdDeviation="5"/>
<feComposite in2="hardAlpha" operator="out"/>
<feColorMatrix type="matrix" values="0 0 0 0 0.643137 0 0 0 0 0.211765 0 0 0 0 0.945098 0 0 0 1 0"/>
<feBlend mode="normal" in2="BackgroundImageFix" result="effect1_dropShadow_54682_123"/>
<feBlend mode="normal" in="SourceGraphic" in2="effect1_dropShadow_54682_123" result="shape"/>
</filter>
<filter id="filter1_d_54682_123" x="343" y="34.25" width="70" height="70" filterUnits="userSpaceOnUse" color-interpolation-filters="sRGB">
<feFlood flood-opacity="0" result="BackgroundImageFix"/>
<feColorMatrix in="SourceAlpha" type="matrix" values="0 0 0 0 0 0 0 0 0 0 0 0 0 0 0 0 0 0 127 0" result="hardAlpha"/>
<feOffset/>
<feGaussianBlur stdDeviation="5"/>
<feComposite in2="hardAlpha" operator="out"/>
<feColorMatrix type="matrix" values="0 0 0 0 0.643137 0 0 0 0 0.211765 0 0 0 0 0.945098 0 0 0 1 0"/>
<feBlend mode="normal" in2="BackgroundImageFix" result="effect1_dropShadow_54682_123"/>
<feBlend mode="normal" in="SourceGraphic" in2="effect1_dropShadow_54682_123" result="shape"/>
</filter>
<filter id="filter2_d_54682_123" x="1086" y="69.25" width="50" height="50" filterUnits="userSpaceOnUse" color-interpolation-filters="sRGB">
<feFlood flood-opacity="0" result="BackgroundImageFix"/>
<feColorMatrix in="SourceAlpha" type="matrix" values="0 0 0 0 0 0 0 0 0 0 0 0 0 0 0 0 0 0 127 0" result="hardAlpha"/>
<feOffset/>
<feGaussianBlur stdDeviation="5"/>
<feComposite in2="hardAlpha" operator="out"/>
<feColorMatrix type="matrix" values="0 0 0 0 0.643137 0 0 0 0 0.211765 0 0 0 0 0.945098 0 0 0 1 0"/>
<feBlend mode="normal" in2="BackgroundImageFix" result="effect1_dropShadow_54682_123"/>
<feBlend mode="normal" in="SourceGraphic" in2="effect1_dropShadow_54682_123" result="shape"/>
</filter>
<filter id="filter3_d_54682_123" x="173" y="84.25" width="50" height="50" filterUnits="userSpaceOnUse" color-interpolation-filters="sRGB">
<feFlood flood-opacity="0" result="BackgroundImageFix"/>
<feColorMatrix in="SourceAlpha" type="matrix" values="0 0 0 0 0 0 0 0 0 0 0 0 0 0 0 0 0 0 127 0" result="hardAlpha"/>
<feOffset/>
<feGaussianBlur stdDeviation="5"/>
<feComposite in2="hardAlpha" operator="out"/>
<feColorMatrix type="matrix" values="0 0 0 0 0.643137 0 0 0 0 0.211765 0 0 0 0 0.945098 0 0 0 1 0"/>
<feBlend mode="normal" in2="BackgroundImageFix" result="effect1_dropShadow_54682_123"/>
<feBlend mode="normal" in="SourceGraphic" in2="effect1_dropShadow_54682_123" result="shape"/>
</filter>
<filter id="filter4_d_54682_123" x="73" y="222.25" width="60" height="60" filterUnits="userSpaceOnUse" color-interpolation-filters="sRGB">
<feFlood flood-opacity="0" result="BackgroundImageFix"/>
<feColorMatrix in="SourceAlpha" type="matrix" values="0 0 0 0 0 0 0 0 0 0 0 0 0 0 0 0 0 0 127 0" result="hardAlpha"/>
<feOffset/>
<feGaussianBlur stdDeviation="5"/>
<feComposite in2="hardAlpha" operator="out"/>
<feColorMatrix type="matrix" values="0 0 0 0 0.643137 0 0 0 0 0.211765 0 0 0 0 0.945098 0 0 0 1 0"/>
<feBlend mode="normal" in2="BackgroundImageFix" result="effect1_dropShadow_54682_123"/>
<feBlend mode="normal" in="SourceGraphic" in2="effect1_dropShadow_54682_123" result="shape"/>
</filter>
<filter id="filter5_d_54682_123" x="1203" y="262.25" width="50" height="50" filterUnits="userSpaceOnUse" color-interpolation-filters="sRGB">
<feFlood flood-opacity="0" result="BackgroundImageFix"/>
<feColorMatrix in="SourceAlpha" type="matrix" values="0 0 0 0 0 0 0 0 0 0 0 0 0 0 0 0 0 0 127 0" result="hardAlpha"/>
<feOffset/>
<feGaussianBlur stdDeviation="5"/>
<feComposite in2="hardAlpha" operator="out"/>
<feColorMatrix type="matrix" values="0 0 0 0 0.643137 0 0 0 0 0.211765 0 0 0 0 0.945098 0 0 0 1 0"/>
<feBlend mode="normal" in2="BackgroundImageFix" result="effect1_dropShadow_54682_123"/>
<feBlend mode="normal" in="SourceGraphic" in2="effect1_dropShadow_54682_123" result="shape"/>
</filter>
<filter id="filter6_d_54682_123" x="556.623" y="61.4551" width="331.328" height="89.6367" filterUnits="userSpaceOnUse" color-interpolation-filters="sRGB">
<feFlood flood-opacity="0" result="BackgroundImageFix"/>
<feColorMatrix in="SourceAlpha" type="matrix" values="0 0 0 0 0 0 0 0 0 0 0 0 0 0 0 0 0 0 127 0" result="hardAlpha"/>
<feOffset/>
<feGaussianBlur stdDeviation="7.5"/>
<feComposite in2="hardAlpha" operator="out"/>
<feColorMatrix type="matrix" values="0 0 0 0 0.643137 0 0 0 0 0.211765 0 0 0 0 0.945098 0 0 0 1 0"/>
<feBlend mode="normal" in2="BackgroundImageFix" result="effect1_dropShadow_54682_123"/>
<feBlend mode="normal" in="SourceGraphic" in2="effect1_dropShadow_54682_123" result="shape"/>
</filter>
<filter id="filter7_d_54682_123" x="218.76" y="148.73" width="1002.47" height="137.469" filterUnits="userSpaceOnUse" color-interpolation-filters="sRGB">
<feFlood flood-opacity="0" result="BackgroundImageFix"/>
<feColorMatrix in="SourceAlpha" type="matrix" values="0 0 0 0 0 0 0 0 0 0 0 0 0 0 0 0 0 0 127 0" result="hardAlpha"/>
<feOffset/>
<feGaussianBlur stdDeviation="7.5"/>
<feComposite in2="hardAlpha" operator="out"/>
<feColorMatrix type="matrix" values="0 0 0 0 0.643137 0 0 0 0 0.211765 0 0 0 0 0.945098 0 0 0 1 0"/>
<feBlend mode="normal" in2="BackgroundImageFix" result="effect1_dropShadow_54682_123"/>
<feBlend mode="normal" in="SourceGraphic" in2="effect1_dropShadow_54682_123" result="shape"/>
</filter>
<linearGradient id="paint0_linear_54682_123" x1="720" y1="50" x2="720" y2="150" gradientUnits="userSpaceOnUse">
<stop stop-color="#A436F1"/>
<stop offset="1" stop-color="#6E27D5"/>
</linearGradient>
<linearGradient id="paint1_linear_54682_123" x1="720" y1="174" x2="720" y2="230" gradientUnits="userSpaceOnUse">
<stop stop-color="#6E27D5"/>
<stop offset="0.755" stop-color="#39146F"/>
</linearGradient>
</defs>
</svg>
