<svg width="1440" height="356" viewBox="0 0 1440 356" fill="none" xmlns="http://www.w3.org/2000/svg">
<path d="M340.365 142.385C340.537 141.73 340.001 141.029 339.41 140.861C338.782 140.683 338.042 140.957 337.778 141.603C336.49 144.751 335.312 147.946 334.363 151.212C334.3 151.425 334.238 151.637 334.179 151.85C334.168 151.892 334.159 151.923 334.153 151.946C334.144 151.971 334.133 152.007 334.117 152.055C333.955 152.56 333.808 153.071 333.667 153.583C333.449 154.375 333.239 155.171 333.037 155.968C332.835 156.765 332.633 157.562 332.429 158.359C332.185 159.316 331.834 160.319 331.957 161.317C332.081 162.315 332.892 163.278 333.919 163.393C334.975 163.512 335.947 162.996 336.426 162.025C336.852 161.161 336.856 160.116 336.97 159.174C337.069 158.36 337.184 157.55 337.317 156.741C337.581 155.128 337.851 153.51 338.187 151.912C338.856 148.723 339.532 145.537 340.364 142.383L340.365 142.385Z" fill="#A436F1"/>
<path d="M319.972 164.126C319.644 163.738 319.226 163.398 318.893 163.068C318.453 162.633 318.009 162.202 317.56 161.775C316.681 160.941 315.769 160.148 314.869 159.339C313.051 157.704 311.107 156.271 309.123 154.853C308.487 154.398 307.61 154.42 307.09 155.061C306.553 155.724 306.737 156.559 307.289 157.118C307.968 157.806 308.383 158.305 309.003 158.96C309.272 159.245 309.546 159.526 309.812 159.814C309.747 159.749 310.01 160.059 310.016 160.066C310.226 160.335 310.456 160.582 310.691 160.832C310.733 160.876 310.757 160.902 310.773 160.918C310.789 160.935 310.809 160.957 310.837 160.987C310.977 161.139 311.117 161.29 311.256 161.443C311.514 161.726 311.771 162.011 312.025 162.298C312.574 162.916 313.086 163.565 313.607 164.206C314.112 164.825 314.608 165.451 315.095 166.084C315.331 166.389 315.559 166.699 315.795 167.004C316.443 167.841 317.331 168.443 318.423 168.317C319.498 168.193 320.468 167.293 320.649 166.207C320.773 165.461 320.509 164.652 319.972 164.125L319.972 164.126Z" fill="#A436F1"/>
<path d="M314.542 180.141C314.66 179.091 314.164 178.152 313.233 177.673C312.593 177.344 311.782 177.271 311.077 177.141C310.488 177.033 309.899 176.929 309.309 176.829C308.128 176.63 306.942 176.463 305.753 176.312C304.588 176.163 303.431 176.069 302.261 175.985C301.662 175.941 301.061 175.892 300.46 175.869C299.713 175.839 298.935 175.857 298.22 176.091C297.728 176.252 297.396 176.807 297.391 177.305C297.386 177.879 297.681 178.259 298.149 178.547C298.483 178.753 298.827 178.857 299.206 178.951C299.308 178.976 299.411 178.997 299.513 179.024C299.535 179.037 299.921 179.166 300.029 179.191C300.582 179.321 301.141 179.429 301.695 179.555C302.867 179.819 304.034 180.108 305.204 180.38C306.344 180.647 307.479 180.932 308.613 181.223C309.164 181.364 309.715 181.51 310.265 181.66C310.57 181.743 310.875 181.828 311.18 181.913C311.638 182.042 312.05 182.082 312.533 182.082C313.486 182.084 314.436 181.06 314.54 180.14L314.542 180.141Z" fill="#A436F1"/>
<path d="M1124 307.887C1123.94 308.56 1124.58 309.168 1125.19 309.242C1125.83 309.32 1126.52 308.933 1126.68 308.254C1127.46 304.944 1128.12 301.603 1128.55 298.229C1128.58 298.009 1128.61 297.79 1128.63 297.57C1128.64 297.527 1128.64 297.495 1128.64 297.472C1128.65 297.445 1128.65 297.408 1128.66 297.358C1128.74 296.834 1128.81 296.306 1128.87 295.779C1128.96 294.962 1129.04 294.143 1129.12 293.324C1129.19 292.505 1129.27 291.686 1129.34 290.868C1129.43 289.884 1129.62 288.838 1129.35 287.872C1129.07 286.906 1128.12 286.081 1127.08 286.128C1126.02 286.176 1125.14 286.838 1124.82 287.872C1124.54 288.792 1124.7 289.825 1124.73 290.773C1124.76 291.593 1124.77 292.411 1124.77 293.23C1124.76 294.864 1124.75 296.505 1124.67 298.136C1124.5 301.39 1124.33 304.643 1124.01 307.888L1124 307.887Z" fill="#A436F1"/>
<path d="M1140.74 283.223C1141.13 283.555 1141.59 283.825 1141.98 284.099C1142.48 284.46 1142.98 284.817 1143.49 285.167C1144.49 285.854 1145.52 286.494 1146.53 287.153C1148.58 288.483 1150.73 289.594 1152.91 290.685C1153.61 291.034 1154.47 290.875 1154.89 290.161C1155.31 289.422 1155 288.627 1154.37 288.161C1153.59 287.588 1153.1 287.16 1152.39 286.609C1152.08 286.37 1151.76 286.136 1151.45 285.893C1151.53 285.947 1151.22 285.681 1151.21 285.676C1150.96 285.443 1150.7 285.235 1150.43 285.025C1150.38 284.988 1150.35 284.966 1150.33 284.953C1150.31 284.938 1150.29 284.92 1150.26 284.894C1150.1 284.766 1149.93 284.639 1149.77 284.509C1149.47 284.27 1149.18 284.029 1148.88 283.785C1148.24 283.261 1147.63 282.699 1147.02 282.148C1146.42 281.616 1145.83 281.075 1145.25 280.526C1144.97 280.262 1144.7 279.991 1144.42 279.727C1143.65 279.002 1142.68 278.546 1141.62 278.841C1140.58 279.132 1139.76 280.173 1139.75 281.274C1139.74 282.03 1140.13 282.787 1140.74 283.224V283.223Z" fill="#A436F1"/>
<path d="M1143.6 266.557C1143.65 267.613 1144.29 268.462 1145.28 268.79C1145.97 269.015 1146.78 268.959 1147.5 268.978C1148.09 268.993 1148.69 269.003 1149.29 269.009C1150.49 269.021 1151.69 269.001 1152.88 268.964C1154.06 268.929 1155.22 268.841 1156.38 268.741C1156.98 268.69 1157.58 268.645 1158.18 268.574C1158.92 268.486 1159.69 268.347 1160.36 268.004C1160.82 267.768 1161.06 267.168 1160.99 266.675C1160.9 266.108 1160.55 265.778 1160.04 265.567C1159.68 265.416 1159.33 265.367 1158.94 265.333C1158.83 265.324 1158.73 265.32 1158.62 265.309C1158.6 265.3 1158.2 265.233 1158.09 265.225C1157.52 265.183 1156.95 265.164 1156.38 265.127C1155.19 265.048 1153.99 264.946 1152.79 264.86C1151.62 264.775 1150.46 264.671 1149.29 264.561C1148.72 264.507 1148.16 264.45 1147.59 264.388C1147.28 264.354 1146.96 264.317 1146.65 264.281C1146.17 264.225 1145.76 264.25 1145.28 264.325C1144.34 264.473 1143.57 265.632 1143.61 266.558L1143.6 266.557Z" fill="#A436F1"/>
<g opacity="0.8" filter="url(#filter0_d_54675_121)">
<path d="M432.219 141V85.125H467.619V91.875H439.569V109.95H464.994V116.7H439.569V141H432.219ZM473.62 141V100.575H480.595V141H473.62ZM473.62 94.125V85.125H480.595V94.125H473.62ZM489.918 141V100.575H496.743V108.45L495.618 107.775C496.618 105.225 498.218 103.25 500.418 101.85C502.668 100.4 505.293 99.675 508.293 99.675C511.193 99.675 513.768 100.325 516.018 101.625C518.318 102.925 520.118 104.725 521.418 107.025C522.768 109.325 523.443 111.925 523.443 114.825V141H516.393V117.075C516.393 114.825 515.993 112.925 515.193 111.375C514.393 109.825 513.243 108.625 511.743 107.775C510.293 106.875 508.618 106.425 506.718 106.425C504.818 106.425 503.118 106.875 501.618 107.775C500.168 108.625 499.018 109.85 498.168 111.45C497.318 113 496.893 114.875 496.893 117.075V141H489.918ZM550.298 141.9C546.498 141.9 543.073 140.975 540.023 139.125C537.023 137.275 534.648 134.75 532.898 131.55C531.148 128.35 530.273 124.775 530.273 120.825C530.273 116.775 531.148 113.175 532.898 110.025C534.648 106.825 537.023 104.3 540.023 102.45C543.073 100.6 546.498 99.675 550.298 99.675C553.648 99.675 556.623 100.4 559.223 101.85C561.823 103.25 563.873 105.15 565.373 107.55L564.248 109.275V84.225H571.298V141H564.473V132.375L565.373 133.575C563.973 136.225 561.923 138.275 559.223 139.725C556.573 141.175 553.598 141.9 550.298 141.9ZM550.898 135.15C553.448 135.15 555.723 134.525 557.723 133.275C559.723 132.025 561.298 130.325 562.448 128.175C563.648 125.975 564.248 123.525 564.248 120.825C564.248 118.075 563.648 115.625 562.448 113.475C561.298 111.275 559.723 109.55 557.723 108.3C555.723 107.05 553.448 106.425 550.898 106.425C548.398 106.425 546.123 107.075 544.073 108.375C542.073 109.625 540.498 111.325 539.348 113.475C538.198 115.575 537.623 118.025 537.623 120.825C537.623 123.525 538.198 125.975 539.348 128.175C540.498 130.325 542.073 132.025 544.073 133.275C546.073 134.525 548.348 135.15 550.898 135.15ZM594.233 157.5C593.333 157.5 592.433 157.425 591.533 157.275C590.633 157.125 589.783 156.875 588.983 156.525V150.3C589.533 150.4 590.208 150.5 591.008 150.6C591.858 150.75 592.683 150.825 593.483 150.825C595.833 150.825 597.608 150.3 598.808 149.25C600.058 148.25 601.233 146.5 602.333 144L604.883 137.925L604.733 144L587.483 100.575H595.058L608.483 135.075H606.233L619.583 100.575H627.308L609.083 145.8C608.233 147.95 607.133 149.9 605.783 151.65C604.483 153.45 602.883 154.875 600.983 155.925C599.083 156.975 596.833 157.5 594.233 157.5ZM650.481 141.9C646.581 141.9 643.056 141 639.906 139.2C636.756 137.35 634.256 134.825 632.406 131.625C630.556 128.425 629.631 124.8 629.631 120.75C629.631 116.7 630.531 113.1 632.331 109.95C634.181 106.8 636.681 104.3 639.831 102.45C642.981 100.6 646.531 99.675 650.481 99.675C654.381 99.675 657.906 100.6 661.056 102.45C664.206 104.25 666.681 106.725 668.481 109.875C670.331 113.025 671.256 116.65 671.256 120.75C671.256 124.85 670.306 128.5 668.406 131.7C666.506 134.85 663.981 137.35 660.831 139.2C657.731 141 654.281 141.9 650.481 141.9ZM650.481 135.15C652.981 135.15 655.231 134.525 657.231 133.275C659.281 132.025 660.881 130.3 662.031 128.1C663.231 125.9 663.831 123.45 663.831 120.75C663.831 118 663.231 115.575 662.031 113.475C660.881 111.325 659.281 109.625 657.231 108.375C655.231 107.075 652.981 106.425 650.481 106.425C647.931 106.425 645.631 107.075 643.581 108.375C641.581 109.625 639.981 111.325 638.781 113.475C637.581 115.575 636.981 118 636.981 120.75C636.981 123.45 637.581 125.9 638.781 128.1C639.981 130.3 641.581 132.025 643.581 133.275C645.631 134.525 647.931 135.15 650.481 135.15ZM693.178 141.9C690.278 141.9 687.653 141.225 685.303 139.875C683.003 138.525 681.203 136.65 679.903 134.25C678.653 131.8 678.028 129 678.028 125.85V100.575H685.003V125.1C685.003 127.1 685.403 128.85 686.203 130.35C687.053 131.85 688.203 133.025 689.653 133.875C691.153 134.725 692.853 135.15 694.753 135.15C696.653 135.15 698.328 134.725 699.778 133.875C701.278 133.025 702.428 131.8 703.228 130.2C704.078 128.6 704.503 126.7 704.503 124.5V100.575H711.553V141H704.728V133.125L705.853 133.8C704.903 136.35 703.278 138.35 700.978 139.8C698.728 141.2 696.128 141.9 693.178 141.9ZM720.859 141V100.575H727.684V108L726.934 106.95C727.884 104.65 729.334 102.95 731.284 101.85C733.234 100.7 735.609 100.125 738.409 100.125H740.884V106.725H737.359C734.509 106.725 732.209 107.625 730.459 109.425C728.709 111.175 727.834 113.675 727.834 116.925V141H720.859ZM757.044 156V100.575H763.869V109.275L762.969 107.55C764.469 105.15 766.519 103.25 769.119 101.85C771.719 100.4 774.694 99.675 778.044 99.675C781.844 99.675 785.244 100.6 788.244 102.45C791.294 104.3 793.694 106.825 795.444 110.025C797.194 113.175 798.069 116.775 798.069 120.825C798.069 124.775 797.194 128.35 795.444 131.55C793.694 134.75 791.294 137.275 788.244 139.125C785.244 140.975 781.819 141.9 777.969 141.9C774.719 141.9 771.744 141.175 769.044 139.725C766.394 138.275 764.344 136.225 762.894 133.575L764.019 132.375V156H757.044ZM777.444 135.15C779.994 135.15 782.269 134.525 784.269 133.275C786.269 132.025 787.819 130.325 788.919 128.175C790.069 125.975 790.644 123.525 790.644 120.825C790.644 118.025 790.069 115.575 788.919 113.475C787.819 111.325 786.269 109.625 784.269 108.375C782.269 107.075 779.994 106.425 777.444 106.425C774.894 106.425 772.594 107.05 770.544 108.3C768.544 109.55 766.944 111.275 765.744 113.475C764.594 115.625 764.019 118.075 764.019 120.825C764.019 123.525 764.594 125.975 765.744 128.175C766.944 130.325 768.544 132.025 770.544 133.275C772.594 134.525 774.894 135.15 777.444 135.15ZM824.314 141.9C820.414 141.9 816.939 140.975 813.889 139.125C810.839 137.275 808.439 134.75 806.689 131.55C804.939 128.3 804.064 124.675 804.064 120.675C804.064 116.625 804.914 113.025 806.614 109.875C808.364 106.725 810.714 104.25 813.664 102.45C816.664 100.6 820.014 99.675 823.714 99.675C826.714 99.675 829.364 100.225 831.664 101.325C834.014 102.375 835.989 103.825 837.589 105.675C839.239 107.475 840.489 109.55 841.339 111.9C842.239 114.2 842.689 116.6 842.689 119.1C842.689 119.65 842.639 120.275 842.539 120.975C842.489 121.625 842.414 122.25 842.314 122.85H809.164V116.85H838.264L834.964 119.55C835.414 116.95 835.164 114.625 834.214 112.575C833.264 110.525 831.864 108.9 830.014 107.7C828.164 106.5 826.064 105.9 823.714 105.9C821.364 105.9 819.214 106.5 817.264 107.7C815.314 108.9 813.789 110.625 812.689 112.875C811.639 115.075 811.214 117.7 811.414 120.75C811.214 123.7 811.664 126.3 812.764 128.55C813.914 130.75 815.514 132.475 817.564 133.725C819.664 134.925 821.939 135.525 824.389 135.525C827.089 135.525 829.364 134.9 831.214 133.65C833.064 132.4 834.564 130.8 835.714 128.85L841.564 131.85C840.764 133.7 839.514 135.4 837.814 136.95C836.164 138.45 834.189 139.65 831.889 140.55C829.639 141.45 827.114 141.9 824.314 141.9ZM850.284 141V100.575H857.109V108L856.359 106.95C857.309 104.65 858.759 102.95 860.709 101.85C862.659 100.7 865.034 100.125 867.834 100.125H870.309V106.725H866.784C863.934 106.725 861.634 107.625 859.884 109.425C858.134 111.175 857.259 113.675 857.259 116.925V141H850.284ZM879.279 141V107.25H871.554V100.575H879.279V97.725C879.279 94.825 879.904 92.375 881.154 90.375C882.454 88.375 884.154 86.85 886.254 85.8C888.404 84.75 890.779 84.225 893.379 84.225C893.929 84.225 894.529 84.275 895.179 84.375C895.879 84.425 896.454 84.5 896.904 84.6V90.825C896.504 90.725 896.029 90.675 895.479 90.675C894.929 90.625 894.504 90.6 894.204 90.6C891.904 90.6 890.004 91.15 888.504 92.25C887.054 93.35 886.329 95.175 886.329 97.725V100.575H895.929V107.25H886.329V141H879.279ZM920.01 141.9C916.11 141.9 912.635 140.975 909.585 139.125C906.535 137.275 904.135 134.75 902.385 131.55C900.635 128.3 899.76 124.675 899.76 120.675C899.76 116.625 900.61 113.025 902.31 109.875C904.06 106.725 906.41 104.25 909.36 102.45C912.36 100.6 915.71 99.675 919.41 99.675C922.41 99.675 925.06 100.225 927.36 101.325C929.71 102.375 931.685 103.825 933.285 105.675C934.935 107.475 936.185 109.55 937.035 111.9C937.935 114.2 938.385 116.6 938.385 119.1C938.385 119.65 938.335 120.275 938.235 120.975C938.185 121.625 938.11 122.25 938.01 122.85H904.86V116.85H933.96L930.66 119.55C931.11 116.95 930.86 114.625 929.91 112.575C928.96 110.525 927.56 108.9 925.71 107.7C923.86 106.5 921.76 105.9 919.41 105.9C917.06 105.9 914.91 106.5 912.96 107.7C911.01 108.9 909.485 110.625 908.385 112.875C907.335 115.075 906.91 117.7 907.11 120.75C906.91 123.7 907.36 126.3 908.46 128.55C909.61 130.75 911.21 132.475 913.26 133.725C915.36 134.925 917.635 135.525 920.085 135.525C922.785 135.525 925.06 134.9 926.91 133.65C928.76 132.4 930.26 130.8 931.41 128.85L937.26 131.85C936.46 133.7 935.21 135.4 933.51 136.95C931.86 138.45 929.885 139.65 927.585 140.55C925.335 141.45 922.81 141.9 920.01 141.9ZM964.729 141.9C960.779 141.9 957.254 140.975 954.154 139.125C951.104 137.275 948.704 134.75 946.954 131.55C945.204 128.35 944.329 124.75 944.329 120.75C944.329 116.7 945.204 113.1 946.954 109.95C948.704 106.8 951.104 104.3 954.154 102.45C957.254 100.6 960.779 99.675 964.729 99.675C967.379 99.675 969.854 100.15 972.154 101.1C974.454 102.05 976.479 103.325 978.229 104.925C979.979 106.525 981.254 108.4 982.054 110.55L975.829 113.55C974.879 111.45 973.429 109.75 971.479 108.45C969.529 107.1 967.279 106.425 964.729 106.425C962.279 106.425 960.054 107.05 958.054 108.3C956.104 109.55 954.554 111.25 953.404 113.4C952.254 115.55 951.679 118.025 951.679 120.825C951.679 123.525 952.254 125.975 953.404 128.175C954.554 130.325 956.104 132.025 958.054 133.275C960.054 134.525 962.279 135.15 964.729 135.15C967.279 135.15 969.529 134.5 971.479 133.2C973.429 131.85 974.879 130.075 975.829 127.875L982.054 131.025C981.254 133.125 979.979 135 978.229 136.65C976.479 138.25 974.454 139.525 972.154 140.475C969.854 141.425 967.379 141.9 964.729 141.9ZM1006.09 141.45C1002.14 141.45 999.095 140.325 996.945 138.075C994.845 135.825 993.795 132.65 993.795 128.55V107.25H986.445V100.575H987.945C989.745 100.575 991.17 100.025 992.22 98.925C993.27 97.825 993.795 96.375 993.795 94.575V91.275H1000.77V100.575H1009.84V107.25H1000.77V128.325C1000.77 129.675 1000.97 130.85 1001.37 131.85C1001.82 132.85 1002.54 133.65 1003.54 134.25C1004.54 134.8 1005.87 135.075 1007.52 135.075C1007.87 135.075 1008.29 135.05 1008.79 135C1009.34 134.95 1009.84 134.9 1010.29 134.85V141C1009.64 141.15 1008.92 141.25 1008.12 141.3C1007.32 141.4 1006.64 141.45 1006.09 141.45Z" fill="url(#paint0_linear_54675_121)"/>
</g>
<g filter="url(#filter1_d_54675_121)">
<path d="M366.653 269.44C360.973 269.44 355.773 268.4 351.053 266.32C346.333 264.16 342.333 261.24 339.053 257.56C335.773 253.88 333.413 249.76 331.973 245.2L342.173 241C344.333 246.76 347.533 251.2 351.773 254.32C356.093 257.36 361.133 258.88 366.893 258.88C370.413 258.88 373.493 258.32 376.133 257.2C378.773 256.08 380.813 254.52 382.253 252.52C383.773 250.44 384.533 248.04 384.533 245.32C384.533 241.56 383.453 238.6 381.293 236.44C379.213 234.2 376.133 232.52 372.053 231.4L355.613 226.36C349.133 224.36 344.173 221.2 340.733 216.88C337.293 212.56 335.573 207.6 335.573 202C335.573 197.12 336.733 192.84 339.053 189.16C341.453 185.4 344.733 182.48 348.893 180.4C353.133 178.24 357.933 177.16 363.293 177.16C368.653 177.16 373.493 178.12 377.813 180.04C382.213 181.96 385.933 184.56 388.973 187.84C392.013 191.04 394.253 194.72 395.693 198.88L385.613 203.08C383.693 198.04 380.813 194.24 376.973 191.68C373.133 189.04 368.613 187.72 363.413 187.72C360.213 187.72 357.373 188.28 354.893 189.4C352.493 190.44 350.613 192 349.253 194.08C347.973 196.08 347.333 198.48 347.333 201.28C347.333 204.56 348.373 207.48 350.453 210.04C352.533 212.6 355.693 214.56 359.933 215.92L374.933 220.36C381.973 222.52 387.293 225.6 390.893 229.6C394.493 233.6 396.293 238.56 396.293 244.48C396.293 249.36 395.013 253.68 392.453 257.44C389.973 261.2 386.493 264.16 382.013 266.32C377.613 268.4 372.493 269.44 366.653 269.44ZM436.072 268.72C429.752 268.72 424.872 266.92 421.432 263.32C418.072 259.72 416.392 254.64 416.392 248.08V214H404.632V203.32H407.032C409.912 203.32 412.192 202.44 413.872 200.68C415.552 198.92 416.392 196.6 416.392 193.72V188.44H427.552V203.32H442.072V214H427.552V247.72C427.552 249.88 427.872 251.76 428.512 253.36C429.232 254.96 430.392 256.24 431.992 257.2C433.592 258.08 435.712 258.52 438.352 258.52C438.912 258.52 439.592 258.48 440.392 258.4C441.272 258.32 442.072 258.24 442.792 258.16V268C441.752 268.24 440.592 268.4 439.312 268.48C438.032 268.64 436.952 268.72 436.072 268.72ZM477.89 269.44C473.25 269.44 469.05 268.36 465.29 266.2C461.61 264.04 458.73 261.04 456.65 257.2C454.65 253.28 453.65 248.8 453.65 243.76V203.32H464.81V242.56C464.81 245.76 465.45 248.56 466.73 250.96C468.09 253.36 469.93 255.24 472.25 256.6C474.65 257.96 477.37 258.64 480.41 258.64C483.45 258.64 486.13 257.96 488.45 256.6C490.85 255.24 492.69 253.28 493.97 250.72C495.33 248.16 496.01 245.12 496.01 241.6V203.32H507.29V268H496.37V255.4L498.17 256.48C496.65 260.56 494.05 263.76 490.37 266.08C486.77 268.32 482.61 269.44 477.89 269.44ZM551.579 269.44C545.499 269.44 540.019 267.96 535.139 265C530.339 262.04 526.539 258 523.739 252.88C520.939 247.76 519.539 242.04 519.539 235.72C519.539 229.24 520.939 223.48 523.739 218.44C526.539 213.32 530.339 209.28 535.139 206.32C540.019 203.36 545.499 201.88 551.579 201.88C556.939 201.88 561.699 203.04 565.859 205.36C570.019 207.6 573.299 210.64 575.699 214.48L573.899 217.24V177.16H585.179V268H574.259V254.2L575.699 256.12C573.459 260.36 570.179 263.64 565.859 265.96C561.619 268.28 556.859 269.44 551.579 269.44ZM552.539 258.64C556.619 258.64 560.259 257.64 563.459 255.64C566.659 253.64 569.179 250.92 571.019 247.48C572.939 243.96 573.899 240.04 573.899 235.72C573.899 231.32 572.939 227.4 571.019 223.96C569.179 220.44 566.659 217.68 563.459 215.68C560.259 213.68 556.619 212.68 552.539 212.68C548.539 212.68 544.899 213.72 541.619 215.8C538.419 217.8 535.899 220.52 534.059 223.96C532.219 227.32 531.299 231.24 531.299 235.72C531.299 240.04 532.219 243.96 534.059 247.48C535.899 250.92 538.419 253.64 541.619 255.64C544.819 257.64 548.459 258.64 552.539 258.64ZM603.533 294.4C602.093 294.4 600.653 294.28 599.213 294.04C597.773 293.8 596.413 293.4 595.133 292.84V282.88C596.013 283.04 597.093 283.2 598.373 283.36C599.733 283.6 601.053 283.72 602.333 283.72C606.093 283.72 608.933 282.88 610.853 281.2C612.853 279.6 614.733 276.8 616.493 272.8L620.573 263.08L620.333 272.8L592.733 203.32H604.853L626.333 258.52H622.733L644.093 203.32H656.453L627.293 275.68C625.933 279.12 624.173 282.24 622.013 285.04C619.933 287.92 617.373 290.2 614.333 291.88C611.293 293.56 607.693 294.4 603.533 294.4ZM683.643 268V178.6H694.443L727.923 226.24H722.403L755.643 178.6H766.443V268H754.563V193.48L758.763 194.8L725.523 241.6H724.563L691.683 194.8L695.403 193.48V268H683.643ZM812.339 269.44C806.099 269.44 800.539 267.96 795.659 265C790.779 262.04 786.939 258 784.139 252.88C781.339 247.68 779.939 241.88 779.939 235.48C779.939 229 781.299 223.24 784.019 218.2C786.819 213.16 790.579 209.2 795.299 206.32C800.099 203.36 805.459 201.88 811.379 201.88C816.179 201.88 820.419 202.76 824.099 204.52C827.859 206.2 831.019 208.52 833.579 211.48C836.219 214.36 838.219 217.68 839.579 221.44C841.019 225.12 841.739 228.96 841.739 232.96C841.739 233.84 841.659 234.84 841.499 235.96C841.419 237 841.299 238 841.139 238.96H788.099V229.36H834.659L829.379 233.68C830.099 229.52 829.699 225.8 828.179 222.52C826.659 219.24 824.419 216.64 821.459 214.72C818.499 212.8 815.139 211.84 811.379 211.84C807.619 211.84 804.179 212.8 801.059 214.72C797.939 216.64 795.499 219.4 793.739 223C792.059 226.52 791.379 230.72 791.699 235.6C791.379 240.32 792.099 244.48 793.859 248.08C795.699 251.6 798.259 254.36 801.539 256.36C804.899 258.28 808.539 259.24 812.459 259.24C816.779 259.24 820.419 258.24 823.379 256.24C826.339 254.24 828.739 251.68 830.579 248.56L839.939 253.36C838.659 256.32 836.659 259.04 833.939 261.52C831.299 263.92 828.139 265.84 824.459 267.28C820.859 268.72 816.819 269.44 812.339 269.44ZM880.17 268.72C873.85 268.72 868.97 266.92 865.53 263.32C862.17 259.72 860.49 254.64 860.49 248.08V214H848.73V203.32H851.13C854.01 203.32 856.29 202.44 857.97 200.68C859.65 198.92 860.49 196.6 860.49 193.72V188.44H871.65V203.32H886.17V214H871.65V247.72C871.65 249.88 871.97 251.76 872.61 253.36C873.33 254.96 874.49 256.24 876.09 257.2C877.69 258.08 879.81 258.52 882.45 258.52C883.01 258.52 883.69 258.48 884.49 258.4C885.37 258.32 886.17 258.24 886.89 258.16V268C885.85 268.24 884.69 268.4 883.41 268.48C882.13 268.64 881.05 268.72 880.17 268.72ZM899.068 268V177.16H910.228V215.92L908.188 214.84C909.788 210.76 912.348 207.6 915.868 205.36C919.468 203.04 923.668 201.88 928.468 201.88C933.108 201.88 937.228 202.92 940.828 205C944.508 207.08 947.388 209.96 949.468 213.64C951.628 217.32 952.708 221.48 952.708 226.12V268H941.428V229.72C941.428 226.12 940.748 223.08 939.388 220.6C938.108 218.12 936.308 216.2 933.988 214.84C931.668 213.4 928.988 212.68 925.948 212.68C922.988 212.68 920.308 213.4 917.908 214.84C915.508 216.2 913.628 218.16 912.268 220.72C910.908 223.2 910.228 226.2 910.228 229.72V268H899.068ZM996.998 269.44C990.758 269.44 985.118 268 980.078 265.12C975.038 262.16 971.038 258.12 968.078 253C965.118 247.88 963.638 242.08 963.638 235.6C963.638 229.12 965.078 223.36 967.958 218.32C970.918 213.28 974.918 209.28 979.958 206.32C984.998 203.36 990.678 201.88 996.998 201.88C1003.24 201.88 1008.88 203.36 1013.92 206.32C1018.96 209.2 1022.92 213.16 1025.8 218.2C1028.76 223.24 1030.24 229.04 1030.24 235.6C1030.24 242.16 1028.72 248 1025.68 253.12C1022.64 258.16 1018.6 262.16 1013.56 265.12C1008.6 268 1003.08 269.44 996.998 269.44ZM996.998 258.64C1001 258.64 1004.6 257.64 1007.8 255.64C1011.08 253.64 1013.64 250.88 1015.48 247.36C1017.4 243.84 1018.36 239.92 1018.36 235.6C1018.36 231.2 1017.4 227.32 1015.48 223.96C1013.64 220.52 1011.08 217.8 1007.8 215.8C1004.6 213.72 1001 212.68 996.998 212.68C992.918 212.68 989.238 213.72 985.958 215.8C982.758 217.8 980.198 220.52 978.278 223.96C976.358 227.32 975.398 231.2 975.398 235.6C975.398 239.92 976.358 243.84 978.278 247.36C980.198 250.88 982.758 253.64 985.958 255.64C989.238 257.64 992.918 258.64 996.998 258.64ZM1071.79 269.44C1065.71 269.44 1060.23 267.96 1055.35 265C1050.55 262.04 1046.75 258 1043.95 252.88C1041.15 247.76 1039.75 242.04 1039.75 235.72C1039.75 229.24 1041.15 223.48 1043.95 218.44C1046.75 213.32 1050.55 209.28 1055.35 206.32C1060.23 203.36 1065.71 201.88 1071.79 201.88C1077.15 201.88 1081.91 203.04 1086.07 205.36C1090.23 207.6 1093.51 210.64 1095.91 214.48L1094.11 217.24V177.16H1105.39V268H1094.47V254.2L1095.91 256.12C1093.67 260.36 1090.39 263.64 1086.07 265.96C1081.83 268.28 1077.07 269.44 1071.79 269.44ZM1072.75 258.64C1076.83 258.64 1080.47 257.64 1083.67 255.64C1086.87 253.64 1089.39 250.92 1091.23 247.48C1093.15 243.96 1094.11 240.04 1094.11 235.72C1094.11 231.32 1093.15 227.4 1091.23 223.96C1089.39 220.44 1086.87 217.68 1083.67 215.68C1080.47 213.68 1076.83 212.68 1072.75 212.68C1068.75 212.68 1065.11 213.72 1061.83 215.8C1058.63 217.8 1056.11 220.52 1054.27 223.96C1052.43 227.32 1051.51 231.24 1051.51 235.72C1051.51 240.04 1052.43 243.96 1054.27 247.48C1056.11 250.92 1058.63 253.64 1061.83 255.64C1065.03 257.64 1068.67 258.64 1072.75 258.64Z" fill="url(#paint1_linear_54675_121)"/>
</g>
<defs>
<filter id="filter0_d_54675_121" x="417.219" y="69.2246" width="608.076" height="103.275" filterUnits="userSpaceOnUse" color-interpolation-filters="sRGB">
<feFlood flood-opacity="0" result="BackgroundImageFix"/>
<feColorMatrix in="SourceAlpha" type="matrix" values="0 0 0 0 0 0 0 0 0 0 0 0 0 0 0 0 0 0 127 0" result="hardAlpha"/>
<feOffset/>
<feGaussianBlur stdDeviation="7.5"/>
<feComposite in2="hardAlpha" operator="out"/>
<feColorMatrix type="matrix" values="0 0 0 0 0.643137 0 0 0 0 0.211765 0 0 0 0 0.945098 0 0 0 1 0"/>
<feBlend mode="normal" in2="BackgroundImageFix" result="effect1_dropShadow_54675_121"/>
<feBlend mode="normal" in="SourceGraphic" in2="effect1_dropShadow_54675_121" result="shape"/>
</filter>
<filter id="filter1_d_54675_121" x="316.973" y="162.16" width="803.42" height="147.24" filterUnits="userSpaceOnUse" color-interpolation-filters="sRGB">
<feFlood flood-opacity="0" result="BackgroundImageFix"/>
<feColorMatrix in="SourceAlpha" type="matrix" values="0 0 0 0 0 0 0 0 0 0 0 0 0 0 0 0 0 0 127 0" result="hardAlpha"/>
<feOffset/>
<feGaussianBlur stdDeviation="7.5"/>
<feComposite in2="hardAlpha" operator="out"/>
<feColorMatrix type="matrix" values="0 0 0 0 0.643137 0 0 0 0 0.211765 0 0 0 0 0.945098 0 0 0 1 0"/>
<feBlend mode="normal" in2="BackgroundImageFix" result="effect1_dropShadow_54675_121"/>
<feBlend mode="normal" in="SourceGraphic" in2="effect1_dropShadow_54675_121" result="shape"/>
</filter>
<linearGradient id="paint0_linear_54675_121" x1="720" y1="50" x2="720" y2="170" gradientUnits="userSpaceOnUse">
<stop stop-color="#A436F1"/>
<stop offset="1" stop-color="#6E27D5"/>
</linearGradient>
<linearGradient id="paint1_linear_54675_121" x1="720" y1="159" x2="720" y2="279" gradientUnits="userSpaceOnUse">
<stop stop-color="#6E27D5"/>
<stop offset="0.755" stop-color="#39146F"/>
</linearGradient>
</defs>
</svg>
