<svg width="1440" height="1800" viewBox="0 0 1440 1800" fill="none" xmlns="http://www.w3.org/2000/svg">
<g clip-path="url(#clip0_54645_104)">
<rect width="1440" height="1800" fill="#0F0F0F"/>
<g filter="url(#filter0_f_54645_104)">
<path d="M1915.95 616.664C1836.21 832.666 1250.31 815.352 607.289 577.992C-35.7303 340.632 -492.363 -26.8907 -412.629 -242.893C-332.895 -458.895 253.011 -441.582 896.03 -204.221C1539.05 33.1387 1995.68 400.662 1915.95 616.664ZM-127.146 -137.511C-187.329 25.5271 157.338 302.933 642.688 482.093C1128.04 661.252 1570.28 674.321 1630.46 511.282C1690.65 348.244 1345.98 70.8373 860.631 -108.322C375.28 -287.482 -66.9626 -300.55 -127.146 -137.511Z" fill="#A436F1" fill-opacity="0.5"/>
</g>
<g filter="url(#filter1_f_54645_104)">
<path d="M-473.513 2249.1C-377.1 2510.29 242.719 2522.08 910.891 2275.44C1579.06 2028.79 2042.56 1617.11 1946.15 1355.92C1849.74 1094.74 1229.92 1082.95 561.746 1329.59C-106.425 1576.24 -569.927 1987.92 -473.513 2249.1ZM1649.5 1465.43C1722.27 1662.57 1372.42 1973.31 868.086 2159.48C363.75 2345.64 -104.089 2336.75 -176.863 2139.6C-249.636 1942.46 100.215 1631.72 604.551 1445.55C1108.89 1259.38 1576.73 1268.28 1649.5 1465.43Z" fill="#A436F1" fill-opacity="0.5"/>
</g>
<path d="M-6095.19 7608.41C-5769.45 9455.79 -2639.44 10448 895.871 9824.68C4431.18 9201.31 7033.05 7198.36 6707.31 5350.98C6381.57 3503.6 3251.56 2511.34 -283.75 3134.71C-3819.06 3758.08 -6420.93 5761.03 -6095.19 7608.41ZM6140.74 5450.88C6437.65 7134.75 4066.07 8960.42 843.667 9528.61C-2378.74 10096.8 -5231.7 9192.38 -5528.62 7508.51C-5825.53 5824.64 -3453.95 3998.97 -231.546 3430.78C2990.86 2862.58 5843.83 3767.01 6140.74 5450.88Z" fill="#A436F1" fill-opacity="0.5"/>
<path d="M552.921 360.826H863.869M62.4712 -167.329L62.4711 469.303M103.931 -167.329L103.931 469.303M145.391 -167.329L145.391 469.303M186.85 -167.329L186.85 469.303M228.31 -167.329L228.31 469.303M269.77 -167.329L269.77 469.303M311.23 -167.329L311.23 469.303M352.689 -167.329L352.689 469.303M394.149 -167.329L394.149 469.303M62 443.962H1347.25M435.609 -167.329L435.609 469.303M62 404.839H1347.25M477.069 -167.329L477.069 469.303M62 365.717H1347.25M518.528 -167.329L518.528 469.303M62 326.594H1347.25M559.988 -167.329L559.988 469.303M62 287.471H1347.25M601.448 -167.329L601.448 469.303M62 248.349H1347.25M642.908 -167.329L642.907 469.303M62 209.226H1347.25M684.367 -167.329L684.367 469.303M62 170.104H1347.25M725.827 -167.329L725.827 469.303M62 130.981H1347.25M767.287 -167.329L767.287 469.303M62 91.8584H1347.25M808.747 -167.329L808.746 469.303M62 52.7357H1347.25M850.206 -167.329L850.206 469.303M62 13.6131H1347.25M891.666 -167.329L891.666 469.303M62 -25.5095H1347.25M933.126 -167.329L933.126 469.303M62 -64.6321H1347.25M974.585 -167.329L974.585 469.303M62 -103.755H1347.25M1016.05 -167.329L1016.05 469.303M62 -142.877H1347.25M1057.5 -167.329V469.303M62 -182L1347.25 -182M1098.96 -167.329V469.303M1140.42 -167.329V469.303M1181.88 -167.329V469.303M1223.34 -167.329V469.303M1264.8 -167.329V469.303M1306.26 -167.329V469.303M1347.72 -167.329V469.303" stroke="url(#paint0_radial_54645_104)"/>
</g>
<defs>
<filter id="filter0_f_54645_104" x="-685.668" y="-658.216" width="2874.65" height="1690.2" filterUnits="userSpaceOnUse" color-interpolation-filters="sRGB">
<feFlood flood-opacity="0" result="BackgroundImageFix"/>
<feBlend mode="normal" in="SourceGraphic" in2="BackgroundImageFix" result="shape"/>
<feGaussianBlur stdDeviation="132" result="effect1_foregroundBlur_54645_104"/>
</filter>
<filter id="filter1_f_54645_104" x="-750.201" y="888.051" width="2973.04" height="1828.93" filterUnits="userSpaceOnUse" color-interpolation-filters="sRGB">
<feFlood flood-opacity="0" result="BackgroundImageFix"/>
<feBlend mode="normal" in="SourceGraphic" in2="BackgroundImageFix" result="shape"/>
<feGaussianBlur stdDeviation="132" result="effect1_foregroundBlur_54645_104"/>
</filter>
<radialGradient id="paint0_radial_54645_104" cx="0" cy="0" r="1" gradientUnits="userSpaceOnUse" gradientTransform="translate(704.862 105) rotate(90) scale(364.303 719.163)">
<stop stop-color="white" stop-opacity="0.12"/>
<stop offset="0.6" stop-color="white" stop-opacity="0"/>
</radialGradient>
<clipPath id="clip0_54645_104">
<rect width="1440" height="1800" fill="white"/>
</clipPath>
</defs>
</svg>
